<?xml version="1.0" standalone="no"?>
<!DOCTYPE svg PUBLIC "-//W3C//DTD SVG 1.1//EN" "http://www.w3.org/Graphics/SVG/1.1/DTD/svg11.dtd" >
<svg xmlns="http://www.w3.org/2000/svg">
<metadata>
This is a custom SVG font generated by IcoMoon.
<iconset grid="60"></iconset>
</metadata>
<defs>
<font id="nbs-icons" horiz-adv-x="1920" >
<font-face units-per-em="1920" ascent="1824" descent="-96" />
<missing-glyph horiz-adv-x="1920" />
<glyph class="hidden" unicode="&#xf000;" d="M0,1824L 1920 -96L0 -96 z" horiz-adv-x="0" />
<glyph unicode="&#xe024;" d="M 1710.944,1824l-1501.888,0 c-115.936,0-154.048-90.144-68.128-192.8l 645.152-800.32l0-780.736 L 1133.92-96l0,926.88 
	l 645.152,800.32C 1864.992,1733.856, 1826.88,1824, 1710.944,1824z"  />
<glyph unicode="&#xe025;" d="M 1814.016,1824l-1708,0 c-58.528,0-105.984-47.424-105.984-105.984l0-1708.064 c0-58.496, 47.424-105.984, 105.984-105.984L 1025.536-96.032 
	l0,743.52 l-250.208,0 l0,289.792 l 250.208,0 l0,213.696 c0,247.968, 151.456,383.008, 372.672,383.008c 105.984,0, 196.992-7.84, 223.552-11.36l0-259.168 l-153.44-0.096
	c-120.32,0-143.584-57.152-143.584-141.024l0-184.992 l 286.944,0 l-37.376-289.792l-249.568,0 L 1324.736-96 l 489.216,0 c 58.528,0, 105.984,47.424, 105.984,105.984l0,1708.064 
	C 1920,1776.576, 1872.544,1824, 1814.016,1824z"  />
<glyph unicode="&#xe026;" d="M 709.28,1616.288c-91.424-91.392-152.032-201.792-183.072-318.496c-116.704-31.040-227.104-91.616-318.496-183.072
	c-276.928-276.928-276.928-726.112,0-1003.040c 277.056-276.896, 726.048-276.896, 1003.008,0c 91.424,91.392, 152.032,201.792, 183.104,318.496
	c 116.704,31.072, 227.104,91.616, 318.496,183.104c 276.896,276.928, 276.896,725.984,0,1003.008C 1435.264,1893.248, 986.208,1893.248 709.28,1616.288z
	 M 374.848,278.848c-184.352,184.48-184.352,484.384,0,668.736c 39.008,39.008, 84.032,68, 131.168,90.4c 16.832-155.072, 84.256-305.856, 203.296-424.672
	c 118.912-119.040, 269.664-186.432, 424.672-203.296c-22.368-47.168-51.328-92.16-90.368-131.2C 859.232,94.496 559.328,94.496 374.848,278.848z
	 M 1545.152,780.448c-39.040-39.040-84.032-68-131.168-90.528c-16.832,155.2-84.288,305.952-203.328,424.832c-118.88,119.008-269.664,186.432-424.672,203.328
	c 22.4,47.104, 51.36,92.096, 90.4,131.136c 184.384,184.352, 484.288,184.352, 668.736,0C 1729.504,1264.672, 1729.504,964.768, 1545.152,780.448z"  />
<glyph unicode="&#xe027;" d="M 281.216,185.184c 374.88-374.88, 982.72-374.88, 1357.6,0s 374.88,982.752,0,1357.632s-982.72,374.88-1357.6,0
		S-93.664,560.064 281.216,185.184z M 394.336,1429.696c 311.872,311.904, 819.392,311.904, 1131.328,0c 311.936-311.968, 311.872-819.424,0-1131.328
		c-311.936-311.904-819.392-311.968-1131.328,0C 82.4,610.24 82.4,1117.792 394.336,1429.696zM 646.016,905.472l 235.52,235.232l0-774.304 c0-43.328, 35.168-78.336, 78.496-78.336s 78.464,35.072, 78.464,78.336l0,772.928 
		l 235.488-235.2c 30.688-30.592, 80.384-30.624, 111.008,0c 30.688,30.56, 30.688,80.192, 0.032,110.784L 959.36,1440l-424.384-423.712
		c-30.656-30.592-30.656-80.256,0-110.816C 565.632,874.848 615.36,874.848 646.016,905.472z"  />
<glyph unicode="&#xe028;" d="M 1638.816,1542.816c-374.88,374.88-982.72,374.88-1357.6,0s-374.88-982.752,0-1357.632s 982.72-374.88, 1357.6,0
		S 2013.696,1167.968, 1638.816,1542.816z M 1525.696,298.304c-311.872-311.904-819.392-311.904-1131.328,0c-311.968,311.968-311.904,819.424,0,1131.328
		s 819.36,311.968, 1131.328,0C 1837.632,1117.792, 1837.632,610.208, 1525.696,298.304zM 1273.984,822.528l-235.52-235.232l0,774.304 c0,43.328-35.2,78.368-78.496,78.368c-43.328,0-78.496-35.072-78.496-78.368
		l0-772.928 l-235.52,235.2c-30.656,30.592-80.32,30.624-110.976,0c-30.656-30.56-30.656-80.192,0-110.784L 960.64,288l 424.384,423.712
		c 30.656,30.592, 30.656,80.256,0,110.816C 1354.368,853.152, 1304.672,853.152, 1273.984,822.528z"  />
<glyph unicode="&#xe023;" d="M 1920,1459.424c-70.624-31.328-146.56-52.576-226.24-62.016c 81.344,48.736, 143.808,126.016, 173.216,217.952
	c-76.128-45.12-160.448-77.952-250.080-95.552c-71.84,76.576-174.208,124.384-287.52,124.384c-217.536,0-393.92-176.384-393.92-393.888
	c0-30.88, 3.424-60.928, 10.144-89.824c-327.328,16.448-617.632,173.248-811.936,411.552c-33.92-58.176-53.344-125.888-53.344-198.016
	c0-136.672, 69.568-257.248, 175.328-327.872c-64.64,1.952-125.312,19.68-178.432,49.248c-0.032-1.696-0.032-3.328-0.032-4.928
	c0-190.88, 135.776-350.048, 315.968-386.24c-33.024-8.992-67.84-13.824-103.776-13.824c-25.376,0-50.016,2.432-74.080,7.072
	c 50.112-156.512, 195.584-270.368, 368-273.568c-134.848-105.696-304.672-168.64-489.184-168.64c-31.808,0-63.232,1.888-94.016,5.504
	c 174.336-111.744, 381.376-176.992, 603.84-176.992c 724.544,0, 1120.672,600.256, 1120.672,1120.736c0,17.056-0.416,34.048-1.088,51.008
	C 1800.384,1311.072, 1867.168,1380.448, 1920,1459.424z"  />
<glyph unicode="&#xe01e;" d="M 1920,872.704L 1051.328,1553.76l0-410.592 C 565.344,1143.168,0,813.28,0,174.24
		c 212.032,329.856, 586.016,430.016, 1051.328,430.016l0-412.512 L 1920,872.704z"  />
<glyph unicode="&#xe021;" d="M 1809.44,1028.32l-273.6,0 L 1535.84,1742.368 L 384.128,1742.368 l0-714.048 L 110.56,1028.32 C 49.472,1028.32,0,978.784,0,917.728l0-635.744 
	c0-61.056, 49.472-110.56, 110.56-110.56l 273.568,0 l0-185.824 l 1151.712,0 l0,185.824 l 273.6,0 c 61.024,0, 110.56,49.504, 110.56,110.56L 1920,917.728 
	C 1920,978.784, 1870.464,1028.32, 1809.44,1028.32z M 494.688,1631.808L 1425.28,1631.808 l0-603.488 L 494.688,1028.32 L 494.688,1631.808 z M 1425.28,96.192L 494.72,96.192 l0,150.496 l 930.56,0 L 1425.28,96.192 z"  />
<glyph unicode="&#xe017;" d="M 960,1824C 429.856,1824,0,1394.144,0,864s 429.856-960, 960-960s 960,429.856, 960,960S 1490.144,1824, 960,1824z M 1503.872,728L 1095.904,728 
	l0-407.968 c0-75.040-60.864-136.032-135.904-136.032s-136.032,60.992-136.032,136.032L 823.872,728L 415.904,728 c-75.040,0-135.904,60.96-135.904,136
	c0,75.168, 60.864,136.032, 135.904,136.032l 407.968,0 L 823.872,1408 c0,75.136, 60.864,136, 136,136c 75.168,0, 136.032-60.864, 136.032-136l0-408.096 l 407.968,0 
	c 75.264,0, 136.128-60.864, 136.128-136C 1640,788.864, 1579.136,728, 1503.872,728z"  />
<glyph unicode="&#xe022;" d="M 1102.944,1824L 362.624,1824 C 277.952,1824, 209.056,1755.104, 209.056,1670.4l0-1612.768 c0-84.672, 68.864-153.632, 153.568-153.632l 1194.688,0 
		c 84.672,0, 153.632,68.928, 153.632,153.632L 1710.944,1216 L 1102.944,1824z M 1102.944,1643.008L 1529.952,1216L 1128.576,1216 c-14.112,0-25.632,11.488-25.632,25.6L 1102.944,1643.008 z
		 M 1582.944,57.632c0-14.112-11.488-25.632-25.632-25.632L 362.624,32 c-14.048,0-25.568,11.488-25.568,25.632L 337.056,1670.4 c0,14.112, 11.488,25.6, 25.568,25.6l 612.32,0 
		l0-454.4 c0-84.704, 68.864-153.6, 153.632-153.6l 454.368,0 L 1582.944,57.632 zM 715.584,596c-14.208,10.432-30.656,17.792-49.408,21.952c-18.688,4.192-38.176,6.24-58.496,6.24l-107.168,0 
		c-6.848,0-12-1.856-15.392-5.6C 481.696,614.88, 480,609.696, 480,603.072l0-395.872 c0-6.624, 1.696-11.808, 5.12-15.552
		c 3.392-3.744, 8.576-5.632, 15.392-5.632l 48.416,0 c 6.88,0, 12,1.888, 15.392,5.632c 3.424,3.744, 5.152,8.928, 5.152,15.552l0,144.384 l 46.496,0 
		c 18.816,0, 36.992,2.304, 54.528,7.040s 33.152,12.352, 46.848,22.944s 24.64,24.544, 32.864,41.856c 8.256,17.344, 12.352,38.496, 12.352,63.52
		c0,26.976-4.288,49.248-12.832,66.912C 741.216,571.424, 729.824,585.504, 715.584,596z M 666.528,461.76c-2.688-7.616-6.912-14.016-12.672-19.264
		c-5.792-5.248-13.184-9.312-22.272-12.192c-9.088-2.912-20.192-4.352-33.184-4.352l-28.864,0 l0,124.16 l 23.712,0 c 14.976,0, 27.36-1.408, 37.216-4.192
		s 17.76-6.816, 23.744-12.032s 10.176-11.776, 12.672-19.552c 2.464-7.808, 3.68-16.704, 3.68-26.784C 670.528,477.952, 669.184,469.312, 666.528,461.76z
		M 1087.168,559.392c-15.072,20.096-35.072,35.936-59.968,47.456c-24.928,11.552-55.744,17.312-92.576,17.312l-99.136,0 
		c-6.848,0-11.968-1.856-15.392-5.6c-3.392-3.712-5.12-8.896-5.12-15.52l0-395.872 c0-6.624, 1.728-11.808, 5.12-15.552
		c 3.424-3.744, 8.576-5.632, 15.392-5.632l 94.016,0 c 35.488,0, 65.888,5.696, 91.104,16.992c 25.248,11.328, 45.92,26.816, 61.952,46.368
		s 27.776,42.304, 35.264,68.32c 7.488,25.984, 11.264,53.76, 11.264,83.264c0,31.264-3.232,60.448-9.632,87.552
		C 1112.992,515.68, 1102.24,539.328, 1087.168,559.392z M 1032,347.072c-3.52-17.12-9.536-31.744-17.984-43.936
		c-8.48-12.224-19.776-21.632-33.984-28.256s-32.032-9.952-53.408-9.952l-22.144,0 l0,282.944 l 22.144,0 c 38.464,0, 66.56-11.68, 84.192-35.008
		c 17.664-23.328, 26.464-59.552, 26.464-108.736C 1037.28,383.2, 1035.52,364.16, 1032,347.072zM 1206.112,185.984l 47.808,0 c 6.624,0, 11.808,1.696, 15.52,4.96c 3.744,3.328, 5.632,8.416, 5.632,15.264l0,162.304 
		l 118.048,0 c 6.624,0, 11.776,1.728, 15.52,5.152c 3.744,3.392, 5.632,8.544, 5.632,15.36l0,36.896 c0,6.848-1.888,11.904-5.632,15.232
		s-8.896,4.992-15.52,4.992l-118.048,0 L 1275.072,546.56 l 143.712,0 c 6.624,0, 11.808,1.76, 15.552,5.12C 1438.112,555.136, 1440,560.256, 1440,567.136l0,36.864 
		c0,6.848-1.888,11.936-5.632,15.264s-8.928,4.928-15.552,4.928l-212.672,0 c-6.848,0-11.968-1.856-15.392-5.6
		c-3.392-3.712-5.12-8.896-5.12-15.52l0-395.872 c0-6.624, 1.728-11.808, 5.12-15.552C 1194.144,187.872, 1199.296,185.984, 1206.112,185.984z"  />
<glyph unicode="&#xe018;" d="M 960,1824C 429.824,1824,0,1394.176,0,864s 429.824-960, 960-960c 530.208,0, 960,429.824, 960,960S 1490.208,1824, 960,1824z
	 M 1049.792,306.944c-25.248-22.464-55.232-33.856-89.024-33.856c-34.176,0-64.48,11.232-90.016,33.376c-26.080,22.688-39.36,54.464-39.36,94.432
	c0,35.136, 12.544,65.408, 37.184,90.016c 24.608,24.608, 55.136,37.12, 90.72,37.12c 35.488,0, 66.24-12.448, 91.392-37.024
	c 25.216-24.672, 38.016-55.008, 38.016-90.112C 1088.672,361.472, 1075.552,329.92, 1049.792,306.944z M 1083.264,1161.632l-32.8-375.872
	c-3.68-46.816-11.616-82.048-24.224-107.744c-13.888-28.352-38.048-43.328-70.016-43.328c-32.608,0-56.608,14.72-69.472,42.496
	c-11.392,24.768-19.264,60.704-24.032,110.016l-24.48,365.856c-4.64,72.288-6.912,122.72-6.912,154.208c0,45.504, 12.416,81.856, 36.832,107.936
	c 24.672,26.336, 57.376,39.744, 97.152,39.744c 49.088,0, 82.656-17.824, 99.84-52.928c 15.776-32.416, 23.456-77.152, 23.456-136.768
	C 1088.672,1231.424, 1086.848,1196.64, 1083.264,1161.632z"  />
<glyph unicode="&#xe01d;" d="M 1312.512,1824l-704.96,0 c-86.848,0-157.216-70.4-157.216-157.248l0-1605.504 c0-86.88, 70.368-157.248, 157.216-157.248l 704.96,0 
		c 86.816,0, 157.184,70.368, 157.184,157.248L 1469.696,1666.752 C 1469.696,1753.6, 1399.328,1824, 1312.512,1824z M 886.688,1691.648l 146.656,0 c 11.904,0, 21.568-9.728, 21.568-21.696
		c0-12-9.664-21.728-21.568-21.728l-146.656,0 c-11.904,0-21.568,9.728-21.568,21.728C 865.12,1681.952, 874.784,1691.648, 886.688,1691.648z
		 M 960.032-35.008c-53.152,0-96.288,43.072-96.288,96.256c0,53.12, 43.136,96.224, 96.288,96.224s 96.224-43.104, 96.224-96.224
		C 1056.256,8.064, 1013.184-35.008, 960.032-35.008z M 1361.792,213.952l-803.52,0 L 558.272,1515.296 l 803.52,0 L 1361.792,213.952 z"  />
<glyph unicode="&#xe01c;" d="M 91.68,1498.112l 777.696-777.632
		c 24.928-24.992, 57.696-37.504, 90.432-37.504c 32.8,0, 65.568,12.512, 90.56,37.504L 1828.064,1498.24C 1816.576,1501.632, 1804.64,1504, 1792,1504L 128,1504 
		C 115.328,1504, 103.328,1501.632, 91.68,1498.112zM 1376.864,865.984l 540.32-540.384C 1919.008,334.176, 1920,342.944, 1920,352
		L 1920,1376 c0,10.176-1.504,19.936-3.68,29.44M 1140.864,630.016c-48.32-48.384-112.64-75.008-181.056-75.008
		c-68.384,0-132.672,26.624-180.928,75.008l-145.504,145.504L 88.672,230.816C 101.12,226.752, 114.176,224, 128,224l 1664,0 c 13.76,0, 26.688,2.752, 39.136,6.752
		L 1286.368,775.488M 3.68,1405.248C 1.44,1395.808,0,1386.112,0,1376l0-1024 
		c0-8.992, 0.928-17.696, 2.688-26.112l 540.192,540.128L 3.68,1405.248z"  />
<glyph unicode="&#xe01b;" d="M 1638.816,1542.816c-374.88,374.88-982.72,374.88-1357.6,0s-374.88-982.752,0-1357.632s 982.72-374.88, 1357.6,0
		S 2013.696,1167.968, 1638.816,1542.816z M 1525.696,298.304c-311.872-311.904-819.424-311.904-1131.328,0c-311.968,311.968-311.904,819.456,0,1131.36
		c 311.904,311.904, 819.392,311.968, 1131.328,0C 1837.632,1117.792, 1837.632,610.208, 1525.696,298.304zM 1005.952,1072.064l-94.752,0 c-31.36,0-47.040-16.16-47.040-48.48l0-622.368 c0-15.456, 3.744-27.52, 11.232-36.192
		C 882.784,356.352, 895.712,352, 914.048,352l 90.432,0 c 20.32,0, 34.048,4.352, 41.248,13.024c 7.264,8.672, 10.88,21.216, 10.88,37.632L 1056.608,1025.024 
		c0,14.944-3.744,26.528-11.2,34.72C 1037.952,1067.968, 1024.8,1072.064, 1005.952,1072.064zM 1034.56,1345.248c-9.376,9.408-20.512,16.864-33.312,22.432C 988.512,1373.216, 974.88,1376, 960.384,1376
		s-28.128-2.784-40.864-8.32c-12.8-5.536-24-13.024-33.664-22.432c-9.632-9.408-17.248-20.512-22.784-33.28
		c-5.568-12.8-8.32-26.432-8.32-40.896c0-14.464, 2.752-28.096, 8.32-40.864c 5.536-12.8, 13.152-24, 22.784-33.664
		c 9.664-9.632, 20.864-17.248, 33.664-22.784c 12.736-5.536, 26.368-8.32, 40.864-8.32s 28.128,2.752, 40.864,8.32
		c 12.8,5.536, 23.936,13.152, 33.312,22.784c 9.376,9.664, 16.864,20.864, 22.432,33.664c 5.568,12.768, 8.32,26.432, 8.32,40.864
		c0,14.496-2.752,28.096-8.32,40.896C 1051.424,1324.736, 1043.936,1335.84, 1034.56,1345.248z"  />
<glyph unicode="&#xe01a;" d="M 1919.936,863.936c0-47.2-18.080-94.368-54.016-130.304l-590.912-590.72c-72.032-72.192-188.896-72.192-260.928,0
	c-72.128,72.032-72.128,188.864,0,260.896l 460.128,460.128L 1014.048,1324.224c-72.128,72.224-72.128,189.056,0,260.928c 72.032,72.16, 188.896,72.16, 260.928,0
	L 1865.92,994.592C 1901.856,958.656, 1919.936,911.168, 1919.936,863.936zM 959.968,863.936c0-47.2-18.112-94.368-54.048-130.304L 315.008,142.912c-72.032-72.192-188.896-72.192-260.928,0
	c-72.16,72.032-72.16,188.864,0,260.896l 460.128,460.128L 54.080,1324.224c-72.16,72.224-72.16,189.056,0,260.928c 72.032,72.16, 188.896,72.16, 260.928,0
	l 590.88-590.56C 941.824,958.656, 959.968,911.168, 959.968,863.936z"  />
<glyph unicode="&#xe019;" d="M-32,864.128c0,47.2, 18.112,94.368, 54.048,130.304l 590.88,590.72c 72.032,72.16, 188.896,72.16, 260.928,0
	c 72.16-72.032, 72.16-188.896,0-260.928L 413.76,864.128L 873.888,403.84c 72.16-72.224, 72.16-189.056,0-260.928c-72.032-72.16-188.896-72.16-260.928,0
	L 22.048,733.472C-13.888,769.408-32,816.896-32,864.128zM 928,864.128c0,47.2, 18.112,94.368, 54.048,130.304l 590.88,590.72c 72.032,72.16, 188.896,72.16, 260.928,0
	c 72.16-72.032, 72.16-188.896,0-260.928L 1373.76,864.128L 1833.888,403.84c 72.16-72.224, 72.16-189.056,0-260.928c-72.032-72.16-188.896-72.16-260.928,0
	L 982.048,733.472C 946.112,769.408, 928,816.896, 928,864.128z"  />
<glyph unicode="&#xe020;" d="M 1920,759.392l0,218.464 l-30.848,9.984l-233.888,76.416l-62.368,150.688l 120,253.824l-154.56,154.528l-29.024-14.72
	l-219.2-111.392L 1159.424,1559.68L 1064.704,1824l-218.464,0 l-10.112-30.912l-76.416-233.888l-150.56-62.368l-254.016,119.936l-154.432-154.528l 14.88-28.896
	l 111.264-219.488l-62.368-150.56L0,968.672l0-218.528 l 30.848-10.080l 234.016-76.384l 62.336-150.624L 207.36,259.136l 154.272-154.496l 29.024,14.784l 219.424,111.392
	l 150.72-62.496L 855.392-96l 218.464,0 l 10.144,30.848l 76.384,233.888l 150.56,62.432l 253.92-120l 154.56,154.496l-14.72,29.024l-111.36,219.328l 62.336,150.688
	L 1920,759.392z M 960,558.016c-168.864,0-305.856,136.928-305.856,305.984s 136.96,305.984, 305.856,305.984c 169.152,0, 306.112-136.928, 306.112-305.984
	S 1129.152,558.016, 960,558.016z"  />
<glyph unicode="&#xe01f;" d="M 1846.4,1750.752c-97.984,97.92-256.672,97.92-354.624,0L 959.904,1218.848L 428,1750.752
		c-97.856,97.856-256.576,97.856-354.56-0.224c-97.856-97.792-97.952-256.64-0.096-354.496l 531.904-531.904L 73.44,332.128
		c-97.856-97.888-97.856-256.864,0-354.72c 97.856-97.888, 256.704-97.76, 354.56,0.224l 531.904,531.904l 531.904-531.904
		c 98.080-98.176, 256.864-98.176, 354.72-0.352c 97.984,97.984, 97.984,256.736-0.224,354.848l-531.776,531.84l 532,532.064
		C 1944.48,1494.016, 1944.48,1652.736, 1846.4,1750.752z"  />
<glyph unicode="&#xe000;" d="M 1119.936,1824.608c-443.52,0-803.040-359.616-803.040-803.040c0-163.68, 49.44-315.424, 133.504-442.496L 2.976,131.552
		l 227.040-226.88l 447.584,447.456c 126.88-84.064, 278.752-133.6, 442.336-133.6c 443.424,0, 803.136,359.488, 803.136,802.976S 1563.36,1824.608, 1119.936,1824.608z
		 M 1119.936,539.68c-265.696,0-481.888,216.256-481.888,481.888c0,265.632, 216.192,481.792, 481.888,481.792c 265.632,0, 481.888-216.16, 481.888-481.792
		C 1601.824,755.936, 1385.568,539.68, 1119.936,539.68z"  />
<glyph unicode="&#xe001;" d="M 1546.56,1136.096l0,122.176 C 1546.56,1570.24, 1283.424,1824, 960,1824C 636.576,1824, 373.28,1570.24, 373.28,1258.304l0-122.176 
		C 253.44,1122.976, 160,1026.112, 160,907.040l0-771.488 C 160,7.744, 267.328-96, 400-96l 1120,0 c 132.512,0, 240,103.744, 240,231.552L 1760,907.040 
		C 1760,1026.112, 1666.4,1122.976, 1546.56,1136.096z M 960,1592.448c 191.136,0, 346.56-149.856, 346.56-334.144l0-119.68 L 613.28,1138.624 l0,119.68 
		C 613.28,1442.592, 768.736,1592.448, 960,1592.448z"  />
<glyph unicode="&#xe003;" d="M 130.912,1347.68l 1658.176,0 c 72.288,0, 130.912,58.56, 130.912,130.912c0,72.256-58.624,130.912-130.912,130.912L 130.912,1609.504 
			C 58.656,1609.472,0,1550.848,0,1478.592C0,1406.208, 58.656,1347.68, 130.912,1347.68zM 1789.088,994.912L 130.912,994.912 C 58.656,994.912,0,936.352,0,864c0-72.288, 58.656-130.912, 130.912-130.912l 1658.176,0 
			C 1861.376,733.088, 1920,791.712, 1920,864C 1920,936.352, 1861.376,994.912, 1789.088,994.912zM 1789.088,380.352L 130.912,380.352 C 58.656,380.352,0,321.824,0,249.44c0-72.288, 58.656-130.912, 130.912-130.912l 1658.176,0 
			c 72.288,0, 130.912,58.624, 130.912,130.912C 1920,321.824, 1861.376,380.352, 1789.088,380.352z"  />
<glyph unicode="&#xe005;" d="M 1343.904,959.936l-287.968,0 L 1055.936,1248 c0,53.024-43.008,96-96.032,96s-96-42.976-96-96l0-287.968 l-287.968,0 
		C 522.976,960.032, 480,917.056, 480,864c0-52.928, 42.976-96, 95.936-96l 287.968,0 l 0.064-287.968C 863.968,427.072, 907.040,384, 960,384
		c 52.928,0, 95.936,43.072, 95.936,96.032L 1055.936,768 l 287.968,0 C 1397.024,768, 1440,810.976, 1440,863.936C 1440,916.96, 1397.024,959.936, 1343.904,959.936zM 960,1664c 441.088,0, 800-358.912, 800-800S 1401.088,64, 960,64C 518.816,64, 160,422.912, 160,864S 518.816,1664, 960,1664 M 960,1824
		C 429.856,1824,0,1394.144,0,864c0-530.112, 429.856-960, 960-960c 530.112,0, 960,429.888, 960,960C 1920,1394.144, 1490.112,1824, 960,1824L 960,1824z"  />
<glyph unicode="&#xe006;" d="M 1343.904,959.936L 575.936,960C 522.976,960, 480,917.056, 480,864c0-52.928, 42.976-96, 95.936-96l 767.968,0 
		C 1397.024,768, 1440,810.944, 1440,863.936C 1440,916.96, 1397.024,959.936, 1343.904,959.936zM 960,1664c 441.088,0, 800-358.912, 800-800S 1401.088,64, 960,64C 518.816,64, 160,422.912, 160,864S 518.816,1664, 960,1664 M 960,1824
		C 429.856,1824,0,1394.144,0,864c0-530.112, 429.856-960, 960-960c 530.112,0, 960,429.888, 960,960C 1920,1394.144, 1490.112,1824, 960,1824L 960,1824z"  />
<glyph unicode="&#xe007;" d="M 365.632,864.128c0,58.432, 22.432,116.832, 66.944,161.344l 731.68,731.52c 89.184,89.376, 233.952,89.376, 323.136,0
		c 89.376-89.184, 89.376-233.92,0-323.104L 917.6,864.128L 1487.36,294.176c 89.376-89.44, 89.376-234.080,0-323.136c-89.184-89.376-233.952-89.376-323.136,0
		L 432.576,702.368C 388.064,746.88, 365.632,805.696, 365.632,864.128z"  />
<glyph unicode="&#xe008;" d="M 1299.328,660.384L 1095.68,864l 203.68,203.68c 37.504,37.504, 37.504,98.272-0.064,135.808
		c-37.504,37.472-98.208,37.472-135.744,0l-203.616-203.616l-203.616,203.616c-37.44,37.44-98.208,37.44-135.744-0.064
		c-37.44-37.44-37.504-98.272-0.032-135.712l 203.616-203.616l-203.584-203.648c-37.44-37.472-37.44-98.368,0-135.808s 98.272-37.376, 135.744,0.064
		l 203.616,203.616l 203.616-203.616c 37.6-37.568, 98.304-37.568, 135.808-0.128S 1336.864,622.816, 1299.328,660.384zM 1525.696,1429.696c 311.904-311.904, 311.904-819.456,0-1131.36c-311.872-311.904-819.456-311.904-1131.328,0
		c-311.968,311.968-311.904,819.456,0,1131.36C 706.208,1741.568, 1213.76,1741.664, 1525.696,1429.696 M 1638.816,1542.816c-374.88,374.88-982.752,374.88-1357.632,0
		c-374.88-374.88-374.88-982.752,0-1357.632c 374.88-374.88, 982.752-374.88, 1357.632,0S 2013.696,1167.968, 1638.816,1542.816L 1638.816,1542.816z"  />
<glyph unicode="&#xe009;" d="M 1893.12,302.24L 1139.68,1629.696C 1102.976,1694.4, 1034.368,1734.304, 960,1734.304c-74.4,0-143.008-39.904-179.712-104.608
		L 26.912,302.24c-36.32-63.872-35.84-142.336, 1.12-205.952c 36.992-63.488, 105.056-102.656, 178.56-102.656l 1506.816,0 c 73.536,0, 141.536,39.168, 178.528,102.656
		C 1928.928,159.904, 1929.376,238.368, 1893.12,302.24z M 1062.944,237.6c-25.248-22.464-55.232-33.856-89.056-33.856
		c-34.176,0-64.48,11.232-90.016,33.376c-26.080,22.688-39.36,54.432-39.36,94.432c0,35.136, 12.544,65.376, 37.184,89.984
		c 24.608,24.64, 55.136,37.12, 90.72,37.12c 35.52,0, 66.272-12.448, 91.424-37.024c 25.216-24.672, 38.016-55.008, 38.016-90.080
		C 1101.824,292.128, 1088.672,260.576, 1062.944,237.6z M 1096.448,1092.288l-32.8-375.904c-3.68-46.816-11.616-82.016-24.256-107.744
		c-13.888-28.352-38.016-43.328-70.016-43.328c-32.608,0-56.608,14.72-69.472,42.496c-11.392,24.736-19.264,60.672-24.032,110.016l-24.48,365.888
		c-4.64,72.288-6.912,122.72-6.912,154.208c0,45.504, 12.416,81.856, 36.832,107.968c 24.672,26.336, 57.376,39.744, 97.152,39.744
		c 49.088,0, 82.656-17.824, 99.872-52.96c 15.776-32.384, 23.456-77.152, 23.456-136.768C 1101.824,1162.080, 1100,1127.296, 1096.448,1092.288z"  />
<glyph unicode="&#xe00a;" d="M 1638.816,1542.816c-374.88,374.88-982.752,374.88-1357.632,0c-374.88-374.88-374.88-982.752,0-1357.632
			c 374.88-374.88, 982.752-374.88, 1357.632,0S 2013.696,1167.968, 1638.816,1542.816z M 1525.696,298.304c-311.872-311.904-819.456-311.904-1131.328,0
			c-311.968,311.936-311.904,819.456,0,1131.328c 311.904,311.904, 819.392,311.968, 1131.328,0C 1837.6,1117.792, 1837.6,610.176, 1525.696,298.304zM 1029.184,544.32c-10.112,10.176-22.112,18.24-35.872,24.32s-28.352,9.056-43.808,9.056
			s-30.048-3.008-43.84-9.056c-13.76-6.016-25.728-14.080-35.84-24.32c-10.144-10.112-18.24-22.112-24.288-35.872
			c-6.016-13.856-9.056-28.48-9.056-43.936s 3.008-30.080, 9.056-43.936c 6.048-13.728, 14.144-25.728, 24.288-35.936
			c 10.112-10.080, 22.080-18.080, 35.84-23.936C 919.456,354.912, 934.048,352, 949.504,352s 30.048,2.912, 43.808,8.672
			c 13.76,5.856, 25.76,13.856, 35.872,23.936c 10.112,10.208, 18.176,22.208, 24.256,35.936c 6.016,13.856, 9.024,28.48, 9.024,43.936
			s-3.040,30.080-9.024,43.936C 1047.36,522.112, 1039.328,534.112, 1029.184,544.32zM 1180.992,1310.656c-22.432,20.8-50.464,36.864-84.128,48.256C 1063.328,1370.272, 1024.064,1376, 979.2,1376
			c-28,0-55.2-2.432-81.536-7.264c-26.304-4.832-51.2-11.008-74.624-18.496c-23.392-7.52-45.344-16.064-65.92-25.76
			c-20.512-9.664-38.976-19.36-55.424-29.024c-11.104-6.752-18.816-12.128-23.2-15.968C 674.176,1275.584, 672,1271.008, 672,1265.664
			c0-3.872, 1.44-9.44, 4.384-16.672c 2.88-7.264, 6.016-13.568, 9.376-18.848l 41.312-75.488c 8.192-15.488, 16.896-23.968, 26.048-25.408
			c 9.184-1.44, 22.688,3.392, 40.608,14.528c 11.072,7.232, 23.424,14.496, 36.928,21.76s 27.776,13.92, 42.752,19.968
			c 14.976,6.016, 30.304,11.008, 46.016,14.848c 15.648,3.904, 31.264,5.824, 46.72,5.824c 31.872,0, 55.872-6.336, 72.096-18.88
			c 16.16-12.576, 24.192-30.464, 24.192-53.728c0-13.056-1.952-25.024-5.76-35.904c-3.872-10.912-9.056-21.28-15.552-31.232
			c-6.56-9.92-14.272-19.392-23.2-28.288c-8.992-8.96-18.496-17.76-28.672-26.496c-14.464-12.608-29.216-25.888-44.192-39.936
			c-14.976-14.048-28.64-29.76-40.928-47.2c-12.32-17.376-22.464-36.736-30.432-58.048c-8-21.312-11.968-45.664-11.968-73.344l0-76.192 
			c0-19.328, 3.84-32.672, 11.584-40.256c 7.712-7.424, 18.368-11.264, 31.872-11.264l 78.208,0 c 14.016,0, 24.8,3.776, 32.288,11.264
			c 7.52,7.52, 11.232,20.416, 11.232,38.816L 1026.912,748.16 c0,22.752, 1.824,41.152, 5.408,55.232c 3.648,14.016, 9.152,26.496, 16.736,37.312
			c 7.328,10.912, 16.832,21.344, 28.192,31.232c 11.328,9.952, 24.768,21.888, 40.288,35.968c 16.384,14.976, 32.512,30.592, 48.096,46.784
			c 15.744,16.192, 29.792,33.76, 42.016,52.608c 12.352,18.88, 22.112,39.328, 29.376,61.344C 1244.448,1090.656, 1248,1115.2, 1248,1142.272
			c0,34.4-5.536,65.792-16.64,94.4C 1220.224,1265.216, 1203.424,1289.856, 1180.992,1310.656z"  />
<glyph unicode="&#xe00b;" d="M 714.432,149.6c-57.12,0-114.272,21.792-157.888,65.472L 65.408,706.048c-87.264,87.296-87.264,228.544,0,315.84
		c 87.136,87.072, 228.544,87.072, 315.648,0l 333.344-333.344L 1538.912,1512.928c 87.104,87.296, 228.608,87.296, 315.616,0c 87.328-87.072, 87.328-228.544,0-315.616
		L 872.224,215.072C 828.704,171.36, 771.552,149.6, 714.432,149.6z"  />
<glyph unicode="&#xe00c;" d="M0,1824l0-1920 l 1920,0 L 1920,1824 L0,1824 z M 937.376,864L 96,22.624L 96,1705.376 L 937.376,864z M 118.624,1728l 1682.752,0 L 960,886.624L 118.624,1728z
		 M 960,841.376L 1801.376,0L 118.624,0 L 960,841.376z M 982.624,864L 1824,1705.376l0-1682.752 L 982.624,864z"  />
<glyph unicode="&#xe00d;" d="M 1727.808,1055.872L 1151.872,1055.872 L 1151.872,1632 c0,106.048-85.952,192-192.064,192c-106.048,0-192-85.952-192-192l0-575.936 L 191.872,1056.064 
		C 85.952,1056.064,0,970.112,0,864c0-105.952, 85.952-192, 191.872-192l 575.936,0 l 0.128-575.936C 767.936-9.888, 854.048-96, 960-96
		c 105.952,0, 191.872,86.112, 191.872,192.064L 1151.872,672 l 575.936,0 C 1834.048,672, 1920,757.952, 1920,863.872C 1920,969.952, 1834.048,1055.872, 1727.808,1055.872z"  />
<glyph unicode="&#xe00e;" d="M 960,1824L 1256.672,1191.872L 1920,1090.4L 1440,598.688L 1553.184-96L 960,232.128L 366.56-96L 480,598.688L0,1090.4L 663.296,1191.872 	z"  />
<glyph unicode="&#xe00f;" d="M 960,1824C 429.824,1824,0,1394.176,0,864c0-530.176, 429.824-960, 960-960c 530.176,0, 960,429.824, 960,960
		C 1920,1394.176, 1490.176,1824, 960,1824z M 1556.384,1087.968L 901.472,427.936C 872.48,398.656, 834.368,384, 796.288,384c-38.080,0-76.16,14.656-105.248,43.936
		L 363.616,757.888c-58.176,58.624-58.176,153.568,0,212.224c 58.080,58.528, 152.352,58.528, 210.432,0l 222.208-224l 549.696,553.952
		c 58.048,58.656, 152.32,58.656, 210.432,0C 1614.528,1241.504, 1614.528,1146.464, 1556.384,1087.968z"  />
<glyph unicode="&#xe010;" d="M 654.176,405.92c-6.016,5.216-13.92,9.248-23.744,12.032s-22.24,4.192-37.216,4.192l-23.712,0 l0-124.16 l 28.864,0 
		c 12.992,0, 24.096,1.44, 33.184,4.352c 9.088,2.88, 16.512,6.944, 22.272,12.192c 5.792,5.216, 9.984,11.616, 12.672,19.264
		c 2.656,7.552, 4,16.192, 4,25.824c0,10.048-1.216,18.976-3.68,26.784C 664.384,394.112, 660.192,400.672, 654.176,405.92zM 926.624,419.872l-22.144,0 l0-282.944 l 22.144,0 c 21.376,0, 39.2,3.328, 53.408,9.952s 25.536,16.032, 33.984,28.256
		c 8.448,12.192, 14.432,26.816, 17.984,43.936c 3.52,17.088, 5.28,36.128, 5.28,57.056c0,49.184-8.8,85.44-26.464,108.736
		C 993.184,408.192, 965.088,419.872, 926.624,419.872zM 1102.944,1824L 362.624,1824 C 277.952,1824, 209.056,1755.104, 209.056,1670.4l0-1612.768 c0-84.672, 68.864-153.632, 153.568-153.632l 1194.688,0 
		c 84.672,0, 153.632,68.928, 153.632,153.632L 1710.944,1216 L 1102.944,1824z M 1102.944,1643.008L 1529.952,1216L 1128.576,1216 c-14.112,0-25.632,11.488-25.632,25.6L 1102.944,1643.008 z
		 M 750.24,295.36c-8.256-17.312-19.2-31.264-32.864-41.856s-29.312-18.208-46.848-22.944s-35.712-7.040-54.528-7.040l-46.496,0 l0-144.384 
		c0-6.624-1.728-11.808-5.152-15.552c-3.392-3.744-8.544-5.632-15.392-5.632l-48.416,0 c-6.848,0-12,1.888-15.392,5.632
		C 481.696,67.36, 480,72.576, 480,79.2L 480,475.072 c0,6.624, 1.696,11.808, 5.12,15.52c 3.392,3.744, 8.576,5.6, 15.392,5.6l 107.168,0 
		c 20.32,0, 39.808-2.048, 58.496-6.24c 18.752-4.16, 35.2-11.488, 49.408-21.952c 14.208-10.496, 25.632-24.576, 34.144-42.176
		c 8.576-17.664, 12.832-39.936, 12.832-66.912C 762.592,333.888, 758.496,312.704, 750.24,295.36z M 1117.792,189.696
		c-7.456-25.984-19.232-48.736-35.264-68.32s-36.672-35.040-61.952-46.368c-25.216-11.328-55.584-16.992-91.104-16.992l-94.016,0 
		c-6.848,0-11.968,1.888-15.392,5.632c-3.392,3.744-5.12,8.928-5.12,15.552L 814.944,475.072 c0,6.624, 1.728,11.808, 5.12,15.52
		c 3.424,3.744, 8.576,5.6, 15.392,5.6l 99.136,0 c 36.8,0, 67.616-5.76, 92.576-17.312c 24.896-11.52, 44.896-27.36, 59.968-47.456
		c 15.104-20.096, 25.856-43.712, 32.256-70.912c 6.4-27.136, 9.632-56.32, 9.632-87.552C 1129.024,243.424, 1125.28,215.68, 1117.792,189.696z M 1440,439.136
		c0-6.88-1.888-12-5.632-15.424c-3.744-3.36-8.928-5.12-15.552-5.12l-143.712,0 l0-100.384 l 118.048,0 c 6.624,0, 11.776-1.696, 15.52-4.992
		s 5.632-8.384, 5.632-15.232l0-36.896 c0-6.848-1.888-11.968-5.632-15.36c-3.744-3.424-8.896-5.152-15.52-5.152l-118.048,0 l0-162.304 
		c0-6.848-1.888-11.904-5.632-15.264c-3.712-3.296-8.896-4.96-15.52-4.96l-47.808,0 c-6.848,0-11.968,1.888-15.392,5.632
		c-3.392,3.744-5.12,8.928-5.12,15.552L 1185.632,475.072 c0,6.624, 1.728,11.808, 5.12,15.52c 3.424,3.744, 8.576,5.6, 15.392,5.6l 212.672,0 
		c 6.624,0, 11.808-1.632, 15.552-4.928S 1440,482.848, 1440,476L 1440,439.136 z M 1582.944,655.808L 337.056,655.808 L 337.056,1670.4 c0,14.112, 11.488,25.6, 25.568,25.6l 612.32,0 l0-454.4 
		c0-84.704, 68.864-153.6, 153.632-153.6l 454.368,0 L 1582.944,655.808 z"  />
<glyph unicode="&#xe011;" d="M 1612.704,1807.2c-22.368,22.368-58.72,22.368-81.088,0L 213.44,488.864c-5.472-5.312-9.792-11.936-12.608-19.072
		L 4.192-17.184c-8.64-21.376-3.552-45.76, 12.704-61.952C 27.84-90.176, 42.464-96, 57.44-96c 7.104,0, 14.496,1.376, 21.472,4.192l 309.312,124.8
		l 177.728,71.68c 7.008,2.944, 13.6,7.136, 18.944,12.736l 1318.304,1318.176C 1913.984,1446.432, 1920,1461.024, 1920,1476.16c0,15.264-6.016,29.728-16.768,40.544
		L 1612.704,1807.2z M 512.192,206.816l-190.304-76.8l-95.872,95.872l 76.8,190.176L 1572.16,1685.536l 209.408-209.376L 512.192,206.816z"  />
<glyph unicode="&#xe012;" d="M 1332.672,1638.496l0-249.504 c 186.272,0, 337.824-151.552, 337.824-337.824s-151.52-337.824-337.824-337.824L 499.008,713.344 L 499.008,1087.552 
	L0,588.544l 499.008-499.040L 499.008,463.84 l 833.664,0 C 1656.576,463.84, 1920,727.328, 1920,1051.168C 1920,1374.976, 1656.576,1638.496, 1332.672,1638.496z"  />
<glyph unicode="&#xe013;" d="M 1920,864C 1920,864, 1920,864, 1920,864C 1920,1394.176, 1490.176,1824, 960,1824C 429.824,1824,0,1394.176,0,864C0,864,0,864,0,864
	c0-0.032,0-0.032,0-0.032c0-8.032, 0.992-15.776, 1.152-23.712c 11.712-475.328, 368.352-864.16, 829.472-926.528C 873.024-91.968, 916-96, 960-96
	c 42.944,0, 84.896,3.744, 126.368,9.28c 462.56,60.992, 820.672,450.528, 832.384,926.944C 1918.976,848.16, 1920,855.904, 1920,863.936
	C 1920,863.936, 1920,863.936, 1920,864z M 773.024,110.528c-62.72,69.536-116.416,172.416-155.072,296.928l 301.056,0 l0-318.56 
	C 868.928,91.552, 820.16,98.816, 773.024,110.528z M 1149.664,1616.8c 63.456-70.592, 117.632-175.424, 156.256-302.24L 1000.96,1314.56 L 1000.96,1639.104 
	C 1052,1636.448, 1101.664,1628.864, 1149.664,1616.8z M 1592,1314.56l-199.168,0 c-27.232,96.416-63.040,181.952-105.632,253.344
	C 1409.472,1510.848, 1514.272,1423.232, 1592,1314.56z M 1000.96,904.96L 1000.96,1232.672 l 327.072,0 c 23.744-100.544, 38.304-211.52, 41.056-327.744L 1000.96,904.928 z M 1369.088,823.008
	c-2.848-118.464-17.952-231.584-42.496-333.568L 1000.96,489.44 L 1000.96,823.008 L 1369.088,823.008 z M 919.008,1639.104L 919.008,1314.56 l-302.848,0 c 38.784,127.232, 93.184,232.32, 156.864,302.944
	C 820.16,1629.184, 868.928,1636.448, 919.008,1639.104z M 553.024,904.96c 2.752,116.224, 17.248,227.2, 40.992,327.744l 324.992,0 L 919.008,904.96 L 553.024,904.96 z M 919.008,823.008
	l0-333.568 l-323.52,0 c-24.608,101.984-39.648,215.104-42.464,333.568L 919.008,823.008 z M 529.28,1314.56l-201.344,0 c 78.336,109.536, 184.224,197.76, 307.68,254.752
	C 592.704,1497.696, 556.608,1411.616, 529.28,1314.56z M 508.736,1232.672c-22.048-100.864-35.168-211.2-37.664-327.744L 184.896,904.928 
	c 6.176,117.984, 37.92,229.344, 91.168,327.744L 508.736,1232.672 z M 184.896,823.008l 286.176,0 c 2.496-118.816, 16.192-231.168, 39.072-333.568L 279.456,489.44 
	C 224.288,589.28, 191.264,702.656, 184.896,823.008z M 332.416,407.456l 198.592,0 c 27.2-94.528, 62.656-178.56, 104.736-248.8
	C 514.528,214.624, 410.368,300.672, 332.416,407.456z M 1000.96,88.896l0,318.56 l 303.136,0 c-38.464-124.096-91.936-226.688-154.4-296.256
	C 1101.696,99.2, 1052,91.552, 1000.96,88.896z M 1391.168,407.456l 196.352,0 c-77.216-105.92-180.352-191.392-300.288-247.392
	C 1328.864,229.984, 1364.16,313.568, 1391.168,407.456z M 1411.968,489.44c 22.848,102.4, 36.512,214.752, 39.072,333.568l 284,0 
	c-6.304-120.352-39.36-233.728-94.528-333.568L 1411.968,489.44 z M 1451.040,904.96c-2.464,116.544-15.68,226.88-37.728,327.744l 230.56,0 
	c 53.28-98.4, 84.96-209.76, 91.168-327.744L 1451.040,904.96 z"  />
<glyph unicode="&#xe014;" d="M 1594.048,734.816L 649.344,1679.392L 0.224,1679.136L0,1029.984l 944.576-944.672c 48.928-48.864, 128.224-48.864, 177.184,0
		l 472.32,472.352C 1643.008,606.592, 1643.008,685.888, 1594.048,734.816z M 404.032,1275.36c-54.816-54.784-143.68-54.784-198.4,0
		c-54.816,54.816-54.816,143.616,0,198.4c 54.72,54.784, 143.584,54.784, 198.4,0C 458.752,1418.976, 458.752,1330.176, 404.032,1275.36z M 1265.952,691.264
		l-278.112-278.112c-7.136-7.136-14.432-10.88-21.856-11.2c-7.488-0.416-14.848,3.2-22.176,10.432l-39.552,39.552
		c-7.808,7.776-11.392,15.424-10.656,23.040c 0.704,7.552, 4.384,14.656, 11.040,21.312l 37.44,37.536c-2.72,8.256-6.144,16.384-10.272,24.384
		c-4.16,8.064-9.12,16.224-14.816,24.48c-5.696,8.288-12.512,16.768-20.256,25.856c-7.808,8.896-16.864,18.496-27.2,28.832
		c-2.272,2.208-4.96,4.704-8.064,7.392c-3.136,2.56-6.208,5.12-9.28,7.456c-3.136,2.4-5.856,4.672-8.256,6.592
		c-2.368,1.888-4.224,3.264-5.312,3.936l-48.128-48.128c-13.6-13.6-26.88-13.76-39.904-0.672l-39.552,39.52
		c-6.144,6.144-9.632,12.608-10.368,19.232c-0.64,6.688, 2.336,13.312, 8.992,20l 32.64,32.672c-12.096,6.112-26.368,14.272-42.752,24.192
		c-16.384,9.984-32.128,22.592-47.328,37.76c-20.128,20.192-34.656,41.312-43.456,63.424c-8.864,22.080-12.32,44.64-10.464,67.584
		c 1.76,22.912, 8.832,45.984, 21.12,69.312c 12.288,23.2, 29.664,46.112, 52.096,68.576c 21.344,21.344, 44.288,39.232, 68.736,53.664
		c 24.544,14.432, 49.344,25.44, 74.272,32.928c 6.208,1.664, 10.752,2.432, 13.632,2.336c 2.784-0.192, 5.216-1.12, 7.040-2.944
		c 2.080-2.048, 3.744-4.256, 4.992-6.688c 1.216-2.432, 2.464-5.344, 3.584-8.736L 864,1062.368c 2.272-7.328, 2.592-13.632, 1.056-18.848
		c-1.696-5.312-6.688-9.216-15.168-11.744c-10.752-3.872-20.448-7.488-29.056-10.848c-8.64-3.296-16.576-6.912-23.904-10.784
		c-7.328-3.936-14.24-8.16-20.64-12.768c-6.432-4.576-12.64-9.824-18.56-15.808c-11.936-11.872-20.096-23.136-24.416-33.664
		c-4.384-10.592-6.176-20.352-5.312-29.472c 0.736-9.024, 3.648-17.504, 8.576-25.408c 4.928-7.904, 10.72-15.168, 17.376-21.824
		c 5.28-5.28, 10.368-10.048, 15.328-14.272c 4.896-4.256, 10.368-8.416, 16.32-12.48c 5.952-4.224, 12.704-8.512, 20.096-12.992
		c 7.456-4.48, 16.352-9.824, 26.656-15.936l 70.496,70.528c 6.656,6.656, 13.312,9.6, 19.968,8.928s 13.088-4.096, 19.232-10.304l 38.88-38.752
		c 6.368-6.432, 9.76-13.056, 10.112-19.808c 0.32-6.752-3.2-13.856-10.496-21.184l-54.016-54.016c 2.272-1.824, 5.184-4.192, 8.736-7.072
		c 3.584-2.88, 6.976-5.824, 10.176-8.672c 3.2-3.008, 6.304-5.92, 9.28-8.672c 2.944-2.752, 5.152-4.864, 6.528-6.208
		c 17.184-17.184, 30.976-33.888, 41.408-49.984c 10.464-16.256, 19.328-32.608, 26.688-48.992l 153.344,153.312c 6.72,6.72, 13.888,10.464, 21.536,11.328
		c 7.68,0.736, 15.424-2.688, 23.296-10.496l 39.456-39.52c 7.328-7.328, 10.848-14.784, 10.336-22.368C 1276.8,705.76, 1273.088,698.368, 1265.952,691.264zM 1883.328,734.72L 938.688,1679.392l-151.296-0.096L 1731.968,734.72c 48.832-48.832, 48.896-128.192,0-177.056
		L 1259.616,85.312c-4.064-4-8.512-7.136-12.864-10.56c 49.088-37.504, 119.36-34.368, 164.256,10.56l 472.32,472.352
		C 1932.192,606.496, 1932.256,685.888, 1883.328,734.72z"  />
<glyph unicode="&#xe015;" d="M 1920,864C 1920,1394.176, 1490.176,1824, 960,1824c-240.416,0-459.584-88.96-628.032-235.008l-0.352,0.352l-7.808-7.776
		C 295.104,1556.032, 267.968,1528.96, 242.464,1500.256l-7.808-7.872l 0.352-0.352C 89.024,1323.648,0,1104.448,0,864c0-530.176, 429.824-960, 960-960
		c 240.416,0, 459.584,89.024, 628.032,235.040l 0.384-0.384l 7.808,7.84c 28.672,25.44, 55.84,52.608, 81.312,81.344l 7.808,7.744l-0.352,0.416
		C 1830.976,404.448, 1920,623.648, 1920,864z M 1555.424,365.536l-173.28,173.28c 4.8-13.92, 8.128-30.080, 8.128-49.312l0-82.912 
		c0-20.992-4.032-40.672-11.552-58.208l 79.744-79.808c-135.040-113.216-308.8-181.728-498.464-181.728C 531.456,86.848, 182.848,435.52, 182.848,864
		c0,189.632, 68.48,363.488, 181.696,498.496l 252.608-252.608c 0.576,52.768, 9.92,101.088, 28.16,143.488c 2.176,5.184, 4.96,9.92, 7.36,14.912l-191.168,191.168
		C 596.576,1572.704, 770.368,1641.152, 960,1641.152c 428.544,0, 777.152-348.576, 777.152-777.152C 1737.152,674.4, 1668.672,500.608, 1555.424,365.536zM 1172.16,729.28c-17.248-19.040-48.608-41.408-101.12-41.408l-17.824,0 c-0.192-4.544-0.832-8.544-1.056-12.928
		l 47.84-47.904l 151.264,0 c 18.208,0, 35.488-3.136, 51.52-8.832l-122.144,122.144C 1177.792,736.384, 1174.912,732.416, 1172.16,729.28zM 1251.264,535.584L 929.728,535.584 c 9.6,24.992, 17.408,51.424, 23.424,79.328c 5.984,27.904, 8.96,59.808, 8.96,95.904
		c0,2.88-0.096,7.328-0.352,13.344c-0.16,5.984-0.448,12.224-0.704,18.752c-0.224,6.464-0.704,13.056-1.44,19.808
		c-0.704,6.688-1.344,12.224-1.792,16.576l 113.184,0 c 15.392,0, 26.432,3.712, 33.152,11.168c 6.72,7.456, 10.080,17.92, 10.080,31.36l0,81.44 
		c0,12.992-3.136,23.328-9.376,31.040c-6.24,7.68-16.352,11.552-30.24,11.552l-147.84,0 c-4.32,17.28-8.032,32.192-11.168,44.64
		c-3.136,12.512-5.664,24.064-7.552,34.656c-1.984,10.592-3.296,20.64-4,30.272c-0.704,9.664-1.088,19.968-1.088,30.976
		c0,13.984, 1.6,27.68, 4.736,41.12c 3.072,13.44, 8.96,25.344, 17.632,35.68c 8.608,10.336, 20.736,18.752, 36.384,25.28
		c 15.616,6.464, 36,9.728, 60.928,9.728c 12.512,0, 24.512-0.992, 36.032-2.912s 23.232-4.672, 35.008-8.256
		c 11.776-3.648, 23.936-8.192, 36.384-13.76c 12.512-5.536, 26.464-11.872, 41.856-19.104c 11.488-6.24, 20.864-7.392, 28.128-3.552
		c 7.232,3.84, 13.44,10.784, 18.752,20.896l 46.112,88.672c 2.4,4.832, 4.224,9.152, 5.376,12.992c 1.216,3.84, 1.856,7.904, 1.856,12.256
		c0,3.84-1.472,7.328-4.352,10.464s-8.448,7.040-16.608,11.872c-34.080,18.304-71.584,32.672-112.48,43.296
		c-40.832,10.56-83.584,15.808-128.352,15.808c-47.040,0-89.28-5.76-126.528-17.28c-37.216-11.552-68.832-28.352-94.752-50.496
		c-25.952-22.112-45.952-49.376-59.872-81.792c-13.92-32.448-20.896-69.824-20.896-112.128c0-31.68, 3.392-61.376, 10.080-89.024
		c 6.72-27.616, 13.216-51.072, 19.456-70.272l-68.48,0 c-13.952,0-24-3.904-30.272-11.552c-6.24-7.712-9.376-18.016-9.376-31.040l0-82.848 
		c0-27.392, 14.176-41.12, 42.528-41.12l 100.928,0 c 0.448-1.92, 0.928-5.184, 1.44-9.728c 0.448-4.64, 1.056-9.76, 1.792-15.488
		s 1.344-11.648, 1.792-17.696c 0.544-5.984, 0.704-11.424, 0.704-16.256c0-21.6-0.576-41.152-1.792-58.752
		c-1.152-17.504-3.136-33.632-5.76-48.32c-2.624-14.624-6.016-28.288-10.080-41.056c-4.064-12.704-8.992-24.864-14.784-36.448l-78.592,0 
		c-13.92,0-25.216-3.552-33.92-10.784c-8.672-7.2-12.96-18.976-12.96-35.328l0-82.912 c0-15.36, 4.096-26.784, 12.224-34.24
		c 8.224-7.424, 19.744-11.2, 34.656-11.2l 583.232,0 c 14.912,0, 26.592,3.744, 35.008,11.2c 8.416,7.456, 12.608,18.88, 12.608,34.24l0,82.912 
		c0,16.352-4.48,28.128-13.312,35.328C 1276.608,532.032, 1265.184,535.584, 1251.264,535.584z"  />
<glyph unicode="&#xe016;" d="M 812.992,1310.432c0-49.984-7.264-100.416-21.76-151.232c-14.528-50.816-37.92-96.8-70.176-137.92
			c-32.256-41.152-74.4-74.624-126.432-100.416c-52-25.824-115.52-38.72-190.56-38.72c-73.376,0-135.712,12.512-186.912,37.504
			c-51.232,24.992-92.96,57.856-125.216,98.592s-55.648,86.496-70.176,137.312C 7.232,1206.368,0,1257.984,0,1310.432c0,51.616, 7.648,103.040, 22.976,154.272
			c 15.328,51.2, 39.328,96.992, 72,137.312c 32.672,40.32, 74.4,72.992, 125.216,97.984s 112.096,37.504, 183.904,37.504c 74.208,0, 137.344-12.704, 189.344-38.112
			s 94.368-58.496, 127.040-99.2c 32.672-40.736, 56.256-86.528, 70.784-137.344C 805.76,1412.032, 812.992,1361.248, 812.992,1310.432z M 567.392,1305.6
			c0,24.992-2.432,50.816-7.264,77.408c-4.832,26.624-13.504,50.4-26.016,71.36c-12.512,20.992-29.248,38.304-50.208,52.032
			c-20.96,13.696-47.584,20.576-79.872,20.576c-32.256,0-58.88-6.848-79.84-20.576c-20.96-13.728-37.696-31.040-50.208-52.032
			c-12.512-20.96-21.184-44.736-26.016-71.36c-4.832-26.624-7.264-52.416-7.264-77.408c0-25.024, 2.624-50.016, 7.872-75.008
			c 5.248-24.992, 14.112-47.776, 26.624-68.352s 29.248-37.312, 50.208-50.208c 20.992-12.896, 47.2-19.36, 78.656-19.36
			c 33.088,0, 60.096,6.464, 81.056,19.36c 20.96,12.896, 37.504,29.632, 49.6,50.208s 20.576,43.552, 25.408,68.96
			C 564.992,1256.608, 567.392,1281.376, 567.392,1305.6z M 1509.888,1707.264c0-8.864-1.824-17.76-5.44-26.624s-8.672-18.944-15.136-30.24L 706.56,69.152
			c-15.328-29.856-29.248-50.432-41.76-61.728c-12.512-11.328-30.048-16.928-52.64-16.928l-156.064,0 c-9.696,0-18.368,2.624-26.016,7.872
			c-7.648,5.184-11.488,12.288-11.488,21.12c0,8.864, 1.824,17.984, 5.44,27.264c 3.616,9.28, 8.672,19.552, 15.136,30.88L 1221.952,1657.632
			c 15.328,29.856, 29.248,50.624, 41.792,62.304c 12.512,11.712, 30.016,17.536, 52.672,17.536l 156.064,0 c 9.696,0, 18.304-2.816, 25.984-8.48
			C 1505.984,1723.36, 1509.888,1716.128, 1509.888,1707.264z M 1920,418.784c0-49.984-7.264-100.416-21.824-151.232c-14.464-50.816-37.92-96.768-70.112-137.984
			c-32.288-41.088-74.176-74.592-125.888-100.416c-51.552-25.824-114.944-38.72-189.952-38.72c-73.408,0-135.68,12.512-186.912,37.504
			c-51.232,24.96-92.96,57.92-125.216,98.592c-32.288,40.736-55.616,86.528-70.112,137.344c-14.56,50.816-21.856,102.432-21.856,154.848
			c0,51.616, 7.456,103.072, 22.4,154.24c 14.912,51.2, 38.72,96.736, 71.36,136.672c 32.64,39.936, 74.56,72.384, 125.824,97.376
			c 51.232,25.024, 112.672,37.504, 184.512,37.504c 74.208,0, 137.12-12.672, 188.736-38.080c 51.552-25.408, 93.76-58.272, 126.368-98.592
			c 32.672-40.32, 56.32-85.952, 70.816-136.672C 1912.736,520.448, 1920,469.6, 1920,418.784z M 1675.616,413.952c0,24.992-2.432,50.624-7.328,76.8
			c-4.8,26.24-13.504,49.984-25.984,71.36c-12.544,21.376-29.248,38.752-50.208,52.064c-20.928,13.312-47.552,19.936-79.84,19.936
			c-32.256,0-59.104-6.624-80.48-19.936s-38.304-30.688-50.816-52.064s-21.152-45.12-25.984-71.36c-4.8-26.176-7.264-51.808-7.264-76.8
			s 2.624-49.984, 7.872-75.008c 5.248-24.992, 14.112-47.808, 26.624-68.384s 29.44-37.28, 50.816-50.176c 21.376-12.864, 47.744-19.328, 79.232-19.328
			c 32.288,0, 59.104,6.464, 80.48,19.328c 21.376,12.896, 38.080,29.632, 50.176,50.176c 12.128,20.576, 20.64,43.552, 25.44,68.928
			C 1673.184,364.928, 1675.616,389.76, 1675.616,413.952z"  />
<glyph unicode="&#xe002;" d="M 959.904,269.632c-58.432,0-116.832,22.432-161.344,66.944L 67.072,1068.256c-89.376,89.184-89.376,233.888,0,323.072
		c 89.184,89.376, 233.92,89.376, 323.104,0l 569.76-569.76l 569.952,569.76c 89.44,89.376, 234.080,89.376, 323.136,0c 89.376-89.184, 89.376-233.888,0-323.072
		L 1121.664,336.576C 1077.152,292.064, 1018.336,269.632, 959.904,269.632z"  />
<glyph unicode="&#xe004;" d="M 1554.368,863.904c0-58.432-22.432-116.832-66.944-161.344L 755.744-28.928c-89.184-89.376-233.888-89.376-323.072,0
		c-89.376,89.184-89.376,233.952,0,323.136l 569.76,569.76l-569.76,569.92c-89.376,89.408-89.376,234.080,0,323.104
		c 89.184,89.376, 233.888,89.376, 323.072,0l 731.68-731.296C 1531.936,981.152, 1554.368,922.336, 1554.368,863.904z"  />
<glyph unicode="&#xe029;" d="M 959.904,1458.368c-58.432,0-116.832-22.432-161.344-66.944L 67.072,659.712c-89.376-89.184-89.376-233.888,0-323.072
	c 89.184-89.376, 233.92-89.376, 323.104,0l 569.76,569.76l 569.952-569.76c 89.408-89.376, 234.080-89.376, 323.104,0c 89.376,89.184, 89.376,233.888,0,323.072
	L 1121.664,1391.424C 1077.152,1435.936, 1018.336,1458.368, 959.904,1458.368z"  />
<glyph unicode="&#xe02a;" d="M 1274.976,1164.32L 848.288,737.728l-172.48,172.512c-45.088,45.024-118.208,45.024-163.328,0
		c-45.152-45.184-45.152-118.304,0-163.456l 254.080-254.080c 22.592-22.592, 52.16-33.888, 81.696-33.888c 29.6,0, 59.2,11.296, 81.728,33.888l 508.32,508.32
		c 45.152,44.992, 45.152,118.208,0,163.328C 1393.248,1209.504, 1320.064,1209.504, 1274.976,1164.32zM 1638.816,1542.816c-374.88,374.88-982.752,374.88-1357.632,0s-374.88-982.784,0-1357.664s 982.752-374.88, 1357.632,0
		S 2013.696,1167.968, 1638.816,1542.816z M 1525.696,298.336c-311.904-311.936-819.424-312-1131.36,0c-311.936,311.872-311.936,819.456,0,1131.36
		c 311.872,311.904, 819.456,311.904, 1131.36,0C 1837.664,1117.728, 1837.568,610.208, 1525.696,298.336z"  />
<glyph unicode="&#xe02b;" d="M 1638.816,1542.816c-374.88,374.88-982.752,374.88-1357.632,0s-374.88-982.752,0-1357.632s 982.752-374.88, 1357.632,0
		S 2013.696,1167.968, 1638.816,1542.816z M 1525.696,298.304c-311.872-311.904-819.424-311.904-1131.36,0c-311.936,311.968-311.872,819.456,0,1131.36
		c 311.936,311.904, 819.424,311.968, 1131.36,0C 1837.632,1117.76, 1837.632,610.208, 1525.696,298.304zM 1005.952,1072.032l-94.752,0 c-31.36,0-47.072-16.16-47.072-48.48l0-622.368 c0-15.456, 3.744-27.52, 11.232-36.192
		C 882.784,356.352, 895.68,352, 914.048,352l 90.432,0 c 20.32,0, 34.048,4.352, 41.248,13.024c 7.264,8.672, 10.88,21.216, 10.88,37.632L 1056.608,1025.024 
		c0,14.944-3.744,26.496-11.2,34.72C 1037.952,1067.968, 1024.8,1072.032, 1005.952,1072.032zM 1034.56,1345.248c-9.376,9.408-20.512,16.864-33.312,22.4C 988.512,1373.216, 974.88,1376, 960.384,1376
		s-28.128-2.784-40.864-8.352c-12.8-5.536-24.032-12.992-33.696-22.4c-9.632-9.408-17.248-20.544-22.784-33.28
		c-5.568-12.8-8.32-26.432-8.32-40.896s 2.752-28.096, 8.32-40.864c 5.536-12.768, 13.152-24, 22.784-33.664
		c 9.664-9.664, 20.864-17.248, 33.696-22.816c 12.736-5.536, 26.368-8.32, 40.864-8.32s 28.128,2.784, 40.864,8.32
		c 12.8,5.568, 23.936,13.152, 33.312,22.816s 16.864,20.864, 22.432,33.664s 8.32,26.4, 8.32,40.864s-2.752,28.096-8.32,40.896
		C 1051.424,1324.704, 1043.936,1335.84, 1034.56,1345.248z"  />
<glyph unicode="&#xe02c;" d="M 1638.816,1542.816c-374.88,374.88-982.752,374.88-1357.632,0s-374.88-982.752,0-1357.632s 982.752-374.88, 1357.632,0
	S 2013.696,1167.968, 1638.816,1542.816z M 1068.704,344.992c0-18.464-4.096-32.608-12.256-42.336C 1048.384,292.864, 1032.864,288, 1010.048,288l-101.76,0 
	c-20.672,0-35.168,4.864-43.52,14.656c-8.416,9.76-12.64,23.328-12.64,40.736L 852.128,1043.52 c0,36.384, 17.664,54.56, 52.896,54.56l 106.592,0 
	c 21.216,0, 36-4.64, 44.448-13.888c 8.384-9.216, 12.64-22.24, 12.64-39.072L 1068.704,344.992 z M 1069.12,1275.968c-6.272-14.432-14.72-27.008-25.248-37.888
	s-23.072-19.36-37.472-25.632c-14.336-6.24-29.696-9.376-46.016-9.376c-16.288,0-31.648,3.136-45.984,9.376
	c-14.432,6.24-27.040,14.752-37.888,25.632s-19.392,23.424-25.632,37.888c-6.272,14.368-9.376,29.76-9.376,46.016
	c0,16.288, 3.104,31.584, 9.376,46.016c 6.208,14.368, 14.784,26.88, 25.632,37.44s 23.424,19.008, 37.888,25.216C 928.736,1436.832, 944.128,1440, 960.416,1440
	c 16.32,0, 31.648-3.168, 46.016-9.376c 14.4-6.208, 26.944-14.656, 37.472-25.216s 18.976-23.072, 25.248-37.44c 6.24-14.4, 9.312-29.728, 9.312-46.016
	C 1078.432,1305.696, 1075.36,1290.336, 1069.12,1275.968z"  />
<glyph unicode="&#xe02d;" d="M 1119.040,736.384c 4.192,3.68, 6.272,9.376, 6.272,17.024l0,41.248 c0,8.128-2.208,13.984-6.656,17.568
		c-4.416,3.584-10.080,5.376-17.024,5.376l-159.936,0 c 4.768,12.448, 8.672,25.568, 11.648,39.424c 3.008,13.888, 4.512,29.792, 4.512,47.712
		c0,1.44-0.064,3.616-0.192,6.624s-0.256,6.080-0.384,9.312c-0.128,3.264-0.352,6.528-0.704,9.888
		c-0.352,3.328-0.672,6.080-0.864,8.256l 56.288,0 c 7.648,0, 13.152,1.856, 16.512,5.568c 3.328,3.68, 5.024,8.896, 5.024,15.584l0,40.544 
		c0,6.432-1.568,11.584-4.672,15.392c-3.136,3.808-8.128,5.76-15.072,5.76l-73.536,0 c-2.144,8.608-4,16-5.568,22.208
		c-1.536,6.208-2.816,11.968-3.744,17.216c-0.96,5.248-1.632,10.272-1.984,15.072c-0.384,4.768-0.544,9.92-0.544,15.392
		c0,6.944, 0.736,13.76, 2.304,20.48c 1.568,6.688, 4.512,12.608, 8.768,17.76c 4.32,5.12, 10.336,9.312, 18.112,12.544
		c 7.744,3.264, 17.888,4.832, 30.304,4.832c 6.176,0, 12.192-0.48, 17.92-1.44c 5.76-0.928, 11.52-2.304, 17.408-4.128
		c 5.856-1.792, 11.872-4.064, 18.080-6.816s 13.152-5.92, 20.8-9.504c 5.76-3.104, 10.4-3.68, 14.016-1.792
		c 3.552,1.92, 6.688,5.376, 9.312,10.4l 22.944,44.096c 1.216,2.4, 2.080,4.544, 2.688,6.464c 0.608,1.92, 0.896,3.936, 0.896,6.080
		c0,1.92-0.704,3.616-2.144,5.184s-4.192,3.52-8.256,5.952c-16.96,9.056-35.616,16.256-55.936,21.504s-41.6,7.904-63.84,7.904
		c-23.392,0-44.416-2.88-62.912-8.64c-18.528-5.76-34.24-14.080-47.2-25.088c-12.896-11.008-22.816-24.576-29.76-40.704
		c-6.944-16.128-10.4-34.72-10.4-55.744c0-15.776, 1.696-30.56, 5.024-44.288c 3.328-13.76, 6.56-25.408, 9.696-34.976l-34.048,0 
		c-6.944,0-11.968-1.952-15.072-5.76c-3.136-3.808-4.672-8.96-4.672-15.392l0-41.248 c0-13.632, 7.072-20.448, 21.152-20.448l 50.208,0 
		c 0.256-0.96, 0.48-2.56, 0.704-4.832c 0.224-2.272, 0.544-4.832, 0.896-7.712c 0.352-2.88, 0.672-5.792, 0.864-8.768
		c 0.256-3.008, 0.384-5.696, 0.384-8.064c0-10.752-0.32-20.512-0.896-29.216c-0.608-8.736-1.568-16.736-2.88-24.032
		c-1.312-7.328-2.976-14.112-4.992-20.448c-2.016-6.336-4.512-12.352-7.36-18.112L 811.52,817.6 c-6.944,0-12.576-1.792-16.864-5.376
		c-4.288-3.584-6.432-9.44-6.432-17.568l0-41.248 c0-7.648, 2.016-13.344, 6.080-17.024c 4.064-3.712, 9.792-5.568, 17.216-5.568l 290.080,0 
		C 1109.024,730.816, 1114.848,732.672, 1119.040,736.384zM 1728,1559.616L 192,1559.616 c-105.984,0-192-85.984-192-192l0-773.312 c0-106.016, 86.016-192, 192-192l 38.4,0 l 1282.976-230.848
		c 104.416-18.784, 204.224,50.592, 223.008,154.976l 13.664,75.872L 1728,402.304 c 106.048,0, 192,85.984, 192,192L 1920,1367.616 C 1920,1473.632, 1834.048,1559.616, 1728,1559.616z M 591.488,975.296
		c0,201.792, 163.552,365.28, 365.312,365.28s 365.248-163.488, 365.248-365.28c0-201.664-163.488-365.248-365.248-365.248S 591.488,773.632, 591.488,975.296z
		 M 1641.888,343.424c-9.376-52.096-59.36-86.848-111.488-77.504l-757.952,136.384L 1652.48,402.304 L 1641.888,343.424z"  />
<glyph unicode="&#xe02e;" d="M 1353.344,451.552c 35.968-6.432, 70.464,17.536, 76.896,53.44l 7.328,40.64L 830.656,545.632 L 1353.344,451.552zM 1057.664,832l-110.272,0 c 3.296,8.608, 5.984,17.664, 8.032,27.2c 2.080,9.6, 3.104,20.544, 3.104,32.928
		c0,0.96-0.032,2.464-0.128,4.576c-0.064,2.048-0.16,4.192-0.256,6.432c-0.064,2.176-0.256,4.512-0.512,6.784
		c-0.256,2.304-0.448,4.192-0.608,5.696l 38.784,0 c 5.28,0, 9.056,1.28, 11.36,3.84s 3.456,6.112, 3.456,10.752l0,27.968 
		c0,4.448-1.056,7.968-3.2,10.624c-2.144,2.624-5.632,3.936-10.4,3.936l-50.688,0 c-1.472,5.952-2.752,11.072-3.808,15.328
		s-1.984,8.256-2.592,11.872c-0.672,3.616-1.12,7.104-1.376,10.368c-0.256,3.328-0.352,6.848-0.352,10.624
		c0,4.8, 0.512,9.472, 1.6,14.080c 1.088,4.672, 3.072,8.704, 6.048,12.288c 2.976,3.52, 7.104,6.4, 12.48,8.64
		c 5.344,2.24, 12.352,3.328, 20.896,3.328c 4.288,0, 8.416-0.32, 12.352-0.992c 3.968-0.672, 8-1.6, 12-2.848
		c 4.032-1.216, 8.16-2.816, 12.48-4.672c 4.288-1.92, 9.088-4.096, 14.336-6.56c 3.968-2.112, 7.2-2.528, 9.664-1.216
		s 4.64,3.68, 6.432,7.2l 15.808,30.4c 0.832,1.632, 1.44,3.136, 1.856,4.48c 0.448,1.312, 0.64,2.688, 0.64,4.192
		c0,1.28-0.512,2.496-1.504,3.584c-0.96,1.056-2.88,2.4-5.696,4.064c-11.68,6.24-24.544,11.232-38.56,14.848
		c-14.016,3.616-28.672,5.472-44,5.472c-16.128,0-30.624-1.984-43.36-5.984c-12.768-3.936-23.616-9.728-32.576-17.28
		c-8.864-7.584-15.712-16.96-20.512-28.096s-7.2-23.936-7.2-38.432c0-10.912, 1.152-21.088, 3.488-30.528
		c 2.272-9.536, 4.512-17.568, 6.656-24.16l-23.488,0 c-4.736,0-8.256-1.312-10.336-3.936c-2.176-2.656-3.264-6.176-3.264-10.624l0-28.48 
		c0-9.376, 4.864-14.080, 14.56-14.080l 34.624,0 c 0.224-0.672, 0.352-1.76, 0.512-3.328c 0.192-1.568, 0.384-3.328, 0.64-5.344
		c 0.256-1.952, 0.48-3.968, 0.64-6.016c 0.192-2.048, 0.256-3.936, 0.256-5.568c0-7.392-0.192-14.112-0.64-20.16
		c-0.416-6.016-1.056-11.552-1.984-16.576c-0.864-5.024-1.984-9.728-3.424-14.080c-1.376-4.384-3.072-8.544-5.056-12.512L 857.6,832.032 
		c-4.736,0-8.672-1.248-11.616-3.712c-2.944-2.496-4.448-6.528-4.448-12.128l0-28.48 c0-5.248, 1.408-9.184, 4.224-11.744
		c 2.784-2.528, 6.72-3.808, 11.84-3.808l 200.032,0 c 5.12,0, 9.152,1.28, 12.032,3.808c 2.88,2.56, 4.352,6.496, 4.352,11.744l0,28.48 
		c0,5.6-1.568,9.632-4.64,12.128C 1066.368,830.784, 1062.464,832, 1057.664,832zM 1638.784,1542.816c-374.88,374.88-982.688,374.88-1357.568,0s-374.88-982.784,0-1357.664s 982.688-374.88, 1357.568,0
		S 2013.664,1167.968, 1638.784,1542.816z M 1622.048,678.016c0-73.12-59.296-132.416-132.416-132.416l 15.2,0 l-9.408-52.384
		c-12.96-71.936-81.824-119.808-153.824-106.848l-884.768,159.232l-26.496,0 c-73.088,0-132.416,59.296-132.416,132.416L 297.92,1211.328 
		c0,73.12, 59.328,132.448, 132.416,132.448l 1059.296,0 c 73.12,0, 132.416-59.328, 132.416-132.448L 1622.048,678.016 zM 1489.664,1277.536L 430.368,1277.536 c-36.512,0-66.208-29.696-66.208-66.208l0-533.312 c0-36.512, 29.728-66.208, 66.208-66.208l 1059.296,0 
		c 36.512,0, 66.208,29.728, 66.208,66.208L 1555.872,1211.328 C 1555.872,1247.872, 1526.144,1277.536, 1489.664,1277.536z M 957.824,688.864
		c-139.168,0-251.936,112.8-251.936,251.904c0,139.168, 112.768,251.936, 251.936,251.936c 139.104,0, 251.872-112.768, 251.872-251.936
		C 1209.696,801.696, 1096.928,688.864, 957.824,688.864z"  />
<glyph unicode="&#xe02f;" d="M 1638.816,1542.816c-374.88,374.88-982.752,374.88-1357.632,0
		s-374.88-982.752,0-1357.632s 982.752-374.88, 1357.632,0S 2013.696,1167.936, 1638.816,1542.816z M 1525.696,298.304c-311.872-311.904-819.424-311.904-1131.328,0
		c-311.968,311.968-311.904,819.456,0,1131.328c 311.904,311.904, 819.392,312, 1131.328,0C 1837.632,1117.792, 1837.632,610.208, 1525.696,298.304zM 959.872,761.44c 18.624,0, 37.184,7.104, 51.36,21.216l 440.672,440.736
		c-6.56,1.92-13.312,3.264-20.512,3.264L 488.576,1226.656 c-7.2,0-14.016-1.344-20.576-3.328l 440.64-440.672
		C 922.816,768.544, 941.312,761.44, 959.872,761.44zM 1196.256,865.152l 306.112-306.208C 1503.424,563.744, 1504,568.736, 1504,573.888
		L 1504,1154.080 c0,5.824-0.864,11.328-2.048,16.704L 1196.256,865.152zM 1062.496,731.392c-27.36-27.424-63.808-42.528-102.624-42.528
		c-38.752,0-75.2,15.104-102.496,42.528l-82.432,82.464l-308.672-308.672c 7.072-2.304, 14.496-3.84, 22.304-3.84l 942.88,0 
		c 7.872,0, 15.136,1.536, 22.176,3.808l-308.672,308.704L 1062.496,731.392zM 418.112,1170.72C 416.8,1165.344, 416,1159.84, 416,1154.080l0-580.224 
		c0-5.088, 0.576-10.016, 1.568-14.816l 306.048,306.080L 418.112,1170.72z"  />
<glyph unicode="&#xe030;" d="M 1910.784,42.656c-4.896,79.136-10.4,158.336-12.192,237.6
	c-1.184,51.84-25.984,85.28-70.432,105.376c-92.672,41.888-185.728,83.040-279.264,123.008c-70.304,30.016-142.336,56.032-212.224,86.976
	c-47.136,20.8-88.8,50.496-102.56,104.672c-4.8,19.168-15.872,23.424-32.672,22.72c-20.768-0.896-23.68,2.24-19.072,22.496
	c 1.6,7.040, 4.384,15.168, 9.312,19.872c 32.672,30.816, 45.248,70.976, 53.76,112.864c 5.248,25.696, 8.064,51.872, 12.224,79.168
	c 24.704-7.104, 34.272,8.032, 42.272,24.704c 34.016,70.912, 47.040,146.72, 51.008,224.352c 1.12,22.56-5.504,26.72-35.648,24.864
	c 3.936,15.968, 7.552,29.504, 10.528,43.232c 19.936,90.944, 14.816,182.176, 2.656,273.408c-1.664,12.64-4.416,26.176-10.72,36.896
	c-25.504,42.88-52.16,84.992-79.424,126.752c-5.696,8.672-15.072,15.712-24.032,21.408c-57.152,36.224-120.224,57.696-185.088,75.68
	c-71.424,19.744-142.24,23.2-210.688-6.656c-39.104-17.088-84.672-31.168-93.888-83.712c-0.16-0.896-2.112-1.472-3.296-2.144
	c-32.672,11.296-44.992,12.192-65.504-4.832C 651.104,1707.424, 645.92,1702.56, 640,1696.64c-40.48-40.288-61.056-90.784-67.168-146.272
	c-7.744-70.080, 7.168-138.88, 18.208-207.68c 5.632-34.88, 13.024-69.44, 20.096-106.624c-23.936,0.864-23.552-13.92-23.744-29.184
	c-0.704-75.52, 16.896-147.52, 39.488-218.912c 5.888-18.592, 16.704-25.984, 34.176-30.048c 6.784-1.632, 15.808-8.544, 17.44-14.752
	c 6.88-26.368, 13.056-53.216, 16.384-80.256c 4.704-38.432, 14.112-71.808, 53.632-90.048c 8.224-3.84, 15.296-20.16, 14.848-30.4
	c-0.64-15.456-15.968-10.432-26.336-10.336c-26.976,0.288-32.96-4.32-43.328-30.336c-8.096-20.288-16.224-40.704-26.496-59.904
	c-3.392-6.24-6.72-12.608-10.304-18.624c-8.576-13.408-19.264-20.768-58.368-35.552c-3.072,0.224-6.336-2.336-9.504-3.616
	c-65.888-26.24-131.712-52.704-197.536-79.072c-44.672-17.792-91.264-36.256-133.856-53.024c-27.296-10.752-54.528-21.44-81.824-32
	c-61.312-23.616-113.888-56.256-146.976-114.592C 23.68,296.192, 19.744,285.056, 19.2,274.72c-3.872-76.512-6.944-153.056-9.76-229.632
	c-0.704-19.488-0.384-25.216, 9.92-26.912c 9.408-8.608, 25.856-14.112, 52.192-19.744c 353.472-75.072, 957.472-156.416, 1654.528-24.032
	C 1805.632-10.432, 1911.968,23.36, 1910.784,42.656z"  />
<glyph unicode="&#xe031;" d="M 1403.52,619.584c-47.36,21.376-94.912,42.432-142.688,62.88
		c-35.904,15.328-72.704,28.64-108.416,44.384c-24.096,10.624-45.376,25.824-52.384,53.504c-2.464,9.824-8.128,11.936-16.704,11.616
		c-10.624-0.448-12.096,1.12-9.76,11.488c 0.832,3.552, 2.24,7.744, 4.736,10.112c 16.704,15.744, 23.136,36.256, 27.456,57.696
		c 2.688,13.12, 4.128,26.496, 6.24,40.448c 12.64-3.616, 17.504,4.128, 21.6,12.64c 17.376,36.192, 24.032,74.944, 26.048,114.624
		c 0.608,11.488-2.816,13.632-18.208,12.672c 1.984,8.192, 3.872,15.072, 5.376,22.048c 10.176,46.496, 7.552,93.056, 1.376,139.68
		c-0.832,6.432-2.272,13.376-5.472,18.88c-13.024,21.888-26.688,43.36-40.608,64.736c-2.912,4.448-7.68,8-12.288,10.944
		c-29.216,18.496-61.408,29.44-94.56,38.624c-36.512,10.112-72.672,11.872-107.648-3.36c-20-8.736-43.264-15.936-47.936-42.752
		c-0.096-0.512-1.12-0.736-1.728-1.12c-16.672,5.76-23.008,6.24-33.472-2.496c-2.4-1.952-5.056-4.448-8.064-7.488
		c-20.672-20.576-31.232-46.368-34.304-74.688c-3.968-35.808, 3.648-70.944, 9.312-106.112c 2.848-17.824, 6.656-35.488, 10.24-54.496
		c-12.224,0.512-12.032-7.072-12.128-14.88c-0.384-38.624, 8.64-75.36, 20.16-111.872c 3.040-9.44, 8.576-13.248, 17.472-15.328
		c 3.456-0.864, 8.096-4.384, 8.928-7.552c 3.456-13.504, 6.656-27.2, 8.384-40.992c 2.4-19.616, 7.2-36.672, 27.36-46.016
		c 4.192-1.984, 7.808-10.304, 7.584-15.488c-0.352-7.936-8.16-5.376-13.472-5.312c-13.792,0.128-16.832-2.176-22.112-15.488
		c-4.16-10.368-8.288-20.8-13.536-30.624c-1.76-3.2-3.456-6.432-5.28-9.504c-4.384-6.88-9.856-10.624-29.824-18.176
		c-1.568,0.128-3.264-1.184-4.832-1.824c-33.696-13.44-67.296-26.944-100.928-40.384c-22.816-9.12-46.624-18.56-68.384-27.136
		c-13.952-5.504-27.84-10.944-41.824-16.384c-31.296-12.064-58.144-28.672-75.072-58.496c-2.656-4.672-4.672-10.368-4.928-15.616
		c-1.984-39.072-3.552-78.24-4.992-117.376c-0.384-9.952-0.192-12.8, 5.056-13.696c 4.8-4.384, 13.216-7.264, 26.656-10.112
		c 180.608-38.304, 489.184-79.872, 845.28-12.256c 40.672,7.744, 95.008,24.992, 94.368,34.88c-2.496,40.384-5.312,80.864-6.24,121.376
		C 1438.912,592.288, 1426.24,609.344, 1403.52,619.584zM 1638.816,1542.848c-374.88,374.88-982.72,374.88-1357.6,0
		s-374.88-982.816,0-1357.696s 982.72-374.88, 1357.6,0S 2013.696,1167.968, 1638.816,1542.848z M 1525.696,298.272c-311.872-311.872-819.456-311.872-1131.36,0
		c-311.968,312-311.872,819.488,0,1131.36c 311.904,311.936, 819.424,312, 1131.36,0C 1837.632,1117.792, 1837.632,610.208, 1525.696,298.272z"  />
<glyph unicode="&#xe032;" d="M 1638.784,1542.816c-374.88,374.88-982.688,374.88-1357.568,0s-374.88-982.784,0-1357.664s 982.688-374.88, 1357.568,0
	S 2013.664,1167.968, 1638.784,1542.816z M 1351.52,409.344c-356.32-67.648-664.928-26.048-845.632,12.288c-13.44,2.88-21.888,5.696-26.624,10.080
	c-5.248,0.864-5.44,3.744-5.056,13.728c 1.44,39.136, 3.072,78.272, 4.992,117.376c 0.256,5.28, 2.24,11.008, 4.864,15.648
	c 16.992,29.792, 43.808,46.496, 75.2,58.56c 13.952,5.376, 27.872,10.848, 41.76,16.352c 21.824,8.576, 45.568,17.984, 68.448,27.104
	c 33.632,13.472, 67.328,26.976, 100.928,40.416c 1.632,0.672, 3.328,1.984, 4.864,1.888c 20,7.52, 25.44,11.328, 29.824,18.144
	c 1.824,3.072, 3.488,6.336, 5.248,9.536c 5.312,9.792, 9.44,20.256, 13.568,30.592c 5.312,13.312, 8.384,15.648, 22.112,15.52
	c 5.312-0.064, 13.12-2.624, 13.504,5.28c 0.192,5.216-3.36,13.568-7.616,15.52c-20.192,9.344-24.992,26.4-27.424,46.048
	c-1.696,13.792-4.8,27.52-8.32,40.96c-0.8,3.232-5.44,6.72-8.928,7.552c-8.928,2.048-14.432,5.856-17.44,15.36
	c-11.552,36.48-20.512,73.248-20.192,111.872c 0.128,7.84-0.064,15.328, 12.128,14.88c-3.616,19.040-7.36,36.704-10.24,54.528
	c-5.696,35.168-13.312,70.304-9.312,106.144c 3.136,28.352, 13.632,54.144, 34.24,74.752c 3.072,3.040, 5.76,5.472, 8.128,7.456
	c 10.496,8.736, 16.8,8.288, 33.504,2.496c 0.64,0.384, 1.632,0.64, 1.696,1.12c 4.736,26.848, 28,34.016, 47.936,42.752
	c 35.008,15.296, 71.2,13.536, 107.68,3.392c 33.184-9.152, 65.376-20.16, 94.624-38.656c 4.576-2.912, 9.376-6.528, 12.256-10.976
	c 13.952-21.312, 27.552-42.848, 40.64-64.768c 3.2-5.44, 4.64-12.384, 5.504-18.816c 6.176-46.624, 8.8-93.248-1.376-139.776
	c-1.568-6.976-3.424-13.888-5.44-22.048c 15.424,0.928, 18.88-1.184, 18.24-12.672c-1.984-39.712-8.672-78.432-26.048-114.656
	c-4.064-8.544-8.992-16.288-21.568-12.672c-2.112-13.952-3.616-27.328-6.24-40.448c-4.384-21.408-10.816-41.984-27.488-57.696
	c-2.56-2.4-3.936-6.56-4.736-10.144c-2.368-10.336-0.864-11.968, 9.76-11.456c 8.576,0.32, 14.24-1.888, 16.672-11.648
	c 7.008-27.68, 28.32-42.88, 52.448-53.472c 35.68-15.84, 72.512-29.12, 108.448-44.48c 47.808-20.448, 95.328-41.472, 142.688-62.816
	c 22.752-10.304, 35.36-27.392, 36-53.92c 0.928-40.512, 3.744-80.96, 6.24-121.408C 1446.464,434.336, 1392.16,417.056, 1351.52,409.344z"  />
<glyph unicode="&#xe033;" d="M 1288.416,439.008c 1.568,58.24, 20.448,112.288, 51.456,157.856c-0.896,0.384-1.856,0.736-2.752,1.152
		c-47.136,20.8-88.8,50.496-102.56,104.672c-4.8,19.168-15.872,23.424-32.672,22.72c-20.768-0.896-23.68,2.24-19.072,22.496
		c 1.6,7.040, 4.384,15.168, 9.312,19.872c 32.672,30.816, 45.248,70.976, 53.76,112.864c 5.248,25.696, 8.064,51.872, 12.224,79.168
		c 24.704-7.104, 34.272,8.032, 42.272,24.704c 34.016,70.912, 47.040,146.72, 51.008,224.352c 1.12,22.56-5.504,26.72-35.648,24.864
		c 3.936,15.968, 7.552,29.504, 10.528,43.232c 19.936,90.944, 14.816,182.176, 2.656,273.408c-1.664,12.64-4.416,26.176-10.72,36.896
		c-25.504,42.88-52.16,84.992-79.424,126.752c-5.696,8.672-15.072,15.712-24.032,21.408c-57.152,36.224-120.224,57.696-185.088,75.68
		c-71.456,19.744-142.272,23.2-210.688-6.656c-39.104-17.088-84.672-31.168-93.888-83.712c-0.16-0.896-2.112-1.472-3.296-2.144
		c-32.672,11.296-44.992,12.192-65.504-4.832c-4.736-3.904-9.952-8.768-15.84-14.72c-40.48-40.288-61.056-90.784-67.168-146.272
		c-7.744-70.080, 7.168-138.88, 18.208-207.68c 5.632-34.88, 13.024-69.44, 20.096-106.624c-23.936,0.864-23.552-13.92-23.744-29.184
		c-0.704-75.52, 16.896-147.52, 39.488-218.912c 5.888-18.592, 16.704-25.984, 34.176-30.048c 6.784-1.632, 15.808-8.544, 17.44-14.752
		c 6.88-26.368, 13.056-53.216, 16.384-80.256c 4.704-38.432, 14.112-71.808, 53.632-90.048c 8.224-3.84, 15.296-20.16, 14.848-30.4
		c-0.64-15.456-15.968-10.432-26.336-10.336c-26.976,0.288-32.96-4.32-43.328-30.336c-8.096-20.288-16.224-40.704-26.496-59.904
		c-3.392-6.24-6.72-12.608-10.304-18.624c-8.576-13.408-19.264-20.768-58.368-35.552c-3.072,0.224-6.336-2.336-9.504-3.616
		c-65.888-26.24-131.712-52.704-197.536-79.072c-44.672-17.792-91.264-36.256-133.856-53.024c-27.296-10.752-54.528-21.44-81.824-32
		c-61.312-23.616-113.888-56.256-146.976-114.592c-5.184-9.12-9.12-20.256-9.696-30.592c-3.872-76.512-6.944-153.056-9.76-229.632
		c-0.704-19.488-0.384-25.216, 9.92-26.912c 9.408-8.608, 25.856-14.112, 52.192-19.744c 265.216-56.32, 671.52-116.192, 1152.352-86.624
		c-12.32,23.36-19.36,49.824-19.36,77.92l0,301.536 C 1204.928,354.816, 1238.016,408.992, 1288.416,439.008zM 1826.944,383.2l0,47.808 c0,121.952-102.848,221.12-229.28,221.12c-126.4,0-229.344-99.2-229.344-221.12l0-47.808 
		c-46.88-5.12-83.36-43.008-83.36-89.536l0-301.536 c0-49.984, 41.984-90.528, 93.824-90.528l 437.824,0 c 51.808,0, 93.824,40.576, 93.824,90.528l0,301.536 
		C 1910.368,340.192, 1873.792,378.048, 1826.944,383.2z M 1733.12,384.192l-271.008,0 l0,46.816 c0,72, 60.768,130.592, 135.52,130.592
		c 74.72,0, 135.456-58.592, 135.456-130.592L 1733.088,384.192 z"  />
<glyph unicode="&#xe034;" d="M 1496.864-96c-355.136,0-710.304,0-1065.44,0c-123.232,49.408-168.032,143.328-167.328,272.352
		c 2.496,458.88, 0.8,917.792, 1.312,1376.704c 0.064,31.040, 0.96,63.040, 8.224,92.992c 26.784,111.008, 117.6,177.408, 242.048,177.632
		c 292.608,0.544, 585.216,0.256, 877.824,0.128c 169.12-0.096, 262.048-93.056, 262.144-262.080c 0.096-271.328, 0.064-542.72, 0.064-814.016
		c0-201.312-0.448-402.624, 0.128-603.968c 0.288-83.008-28.928-151.424-95.936-201.6C 1540.416-72.576, 1518.016-83.392, 1496.864-96z M 960.448,1209.472
		c 133.696,0, 267.328-0.608, 400.96,0.288c 63.808,0.416, 99.776,36.576, 100.928,100.128c 1.056,59.936, 0.512,119.872, 0.32,179.84
		c-0.224,84.896-33.312,118.528-117.44,118.752c-99.904,0.32-199.776,0.096-299.712,0.096c-159.904,0-319.776,0.512-479.616-0.256
		c-70.080-0.384-106.208-37.408-106.72-106.688c-0.448-59.904-0.32-119.904-0.096-179.808c 0.288-77.632, 34.208-112.128, 111.712-112.352
		C 700.672,1209.088, 830.56,1209.376, 960.448,1209.472z M 1058.88,937.248c 0.032,77.92-17.984,95.424-98.24,95.424c-79.168,0-98.912-19.168-98.688-95.744
		c 0.192-73.728, 21.248-94.176, 97.152-94.304C 1039.264,842.528, 1058.784,861.056, 1058.88,937.248z M 959.232,517.248
		c 81.92-0.032, 99.552,16.576, 99.648,93.6c 0.032,76.16-19.104,95.52-94.72,95.68c-82.368,0.256-102.496-18.784-102.208-96.416
		C 862.144,535.936, 881.696,517.312, 959.232,517.248z M 960.512,191.008c 82.432,0, 98.912,16.64, 98.368,99.104c-0.032,6.24, 0.128,12.512-0.288,18.752
		c-2.624,40.576-19.968,61.632-56.352,68.544c-65.536,12.48-115.712-0.864-132.288-35.2C 830.944,261.536, 873.12,191.040, 960.512,191.008z
		 M 580.128,842.624c 78.048,0, 98.176,19.744, 98.048,96.768c0,7.488, 0.224,15.040-0.256,22.432c-2.528,40.224-20.672,62.592-55.808,68.928
		c-69.376,12.544-118.176-0.832-134.592-36.928C 449.984,911.072, 491.84,842.624, 580.128,842.624z M 579.136,517.248
		c 81.696-0.032, 99.456,17.6, 99.072,98.336c-0.064,6.24, 0.128,12.512-0.256,18.72c-2.4,41.6-21.12,64.16-58.624,70.784
		c-66.944,11.776-114.496-1.632-131.264-37.056C 449.664,586.816, 491.552,517.312, 579.136,517.248z M 1340.96,517.44c 9.984,0, 19.936-0.32, 29.92,0.064
		c 35.168,1.216, 63.808,16.224, 66.336,52.704c 5.664,81.888, 9.152,114.272-37.44,127.616c-36.32,10.432-78.24,3.552-117.28,0.192
		c-10.592-0.896-23.008-15.296-29.248-26.496C 1209.984,593.888, 1253.984,517.248, 1340.96,517.44z M 1439.232,936.736
		c 0.032,79.936-16,95.84-96.832,95.936c-79.744,0.096-99.072-18.432-98.976-95.264c 0.064-74.4, 20.672-94.72, 96.448-94.816
		C 1420.8,842.528, 1439.2,859.936, 1439.232,936.736z M 578.752,191.008c 83.488,0, 100.192,16.96, 99.424,101.312c0,3.712, 0.064,7.456-0.064,11.2
		c-1.728,43.104-18.88,65.984-54.88,73.472c-64.8,13.504-117.824-0.384-135.040-35.328C 448.992,262.016, 491.616,191.040, 578.752,191.008z
		 M 1439.232,284.864c0,77.696-17.408,94.4-98.176,94.336c-77.472,0-97.536-19.040-97.632-92.672c-0.128-77.696, 18.016-95.456, 97.856-95.552
		C 1423.328,190.944, 1439.232,206.112, 1439.232,284.864z"  />
<glyph unicode="&#xe035;" d="M 1638.816,1542.816c-374.88,374.88-982.72,374.88-1357.6,0s-374.88-982.752,0-1357.632s 982.72-374.88, 1357.6,0
		S 2013.696,1167.968, 1638.816,1542.816z M 1525.696,298.304c-311.872-311.904-819.456-311.904-1131.36,0c-311.968,311.968-311.872,819.456,0,1131.36
		c 311.904,311.904, 819.424,311.968, 1131.36,0C 1837.632,1117.76, 1837.632,610.208, 1525.696,298.304zM 1314.016,1219.008c-0.064,86.016-47.328,133.312-133.408,133.376c-148.864,0.064-297.792,0.224-446.688-0.064
		c-63.328-0.128-109.568-33.888-123.168-90.4c-3.68-15.264-4.16-31.488-4.192-47.328c-0.256-233.536, 0.608-467.008-0.672-700.512
		c-0.352-65.664, 22.464-113.44, 85.152-138.592c 180.672,0, 361.44,0, 542.176,0c 10.752,6.4, 22.112,11.904, 32.096,19.392
		c 34.080,25.504, 48.96,60.352, 48.8,102.56c-0.32,102.464-0.064,204.896-0.064,307.328C 1314.048,942.848, 1314.048,1080.96, 1314.016,1219.008z
		 M 766.016,521.536c-44.352,0-66.016,36.16-46.080,76.672c 8.768,17.792, 35.744,24.832, 68.704,17.984c 18.304-3.808, 27.072-15.456, 27.936-37.408
		c 0.064-1.92, 0.032-3.808, 0.032-5.696C 816.992,530.176, 808.512,521.536, 766.016,521.536z M 766.208,687.52
		c-44.576,0.032-65.888,35.424-46.336,76.736c 8.544,18.016, 32.704,24.864, 66.784,18.848c 19.104-3.36, 28.608-14.848, 29.856-36
		c 0.192-3.168, 0.096-6.336, 0.128-9.536C 816.832,696.512, 807.776,687.52, 766.208,687.52z M 766.72,853.12c-44.96,0-66.24,34.816-47.136,76.928
		c 8.352,18.368, 33.184,25.184, 68.48,18.816c 17.888-3.232, 27.104-14.592, 28.416-35.104c 0.256-3.744, 0.128-7.584, 0.128-11.392
		C 816.672,863.136, 806.432,853.12, 766.72,853.12z M 960.256,521.536c-44.48,0-65.952,35.904-46.048,76.928c 8.416,17.472, 33.952,24.256, 67.328,17.92
		c 18.496-3.488, 27.328-14.208, 28.672-34.88c 0.192-3.2, 0.16-6.336, 0.16-9.536C 1010.592,529.984, 1002.208,521.536, 960.256,521.536z
		 M 959.616,687.52c-39.456,0.032-49.376,9.504-49.504,47.296c-0.16,39.488, 10.080,49.184, 52,49.056c 38.528-0.096, 48.256-9.952, 48.224-48.672
		C 1010.304,695.968, 1001.312,687.52, 959.616,687.52z M 959.552,853.12c-38.624,0.064-49.344,10.496-49.44,48
		c-0.128,38.976, 9.952,48.704, 50.208,48.704c 40.864,0, 50.048-8.928, 50.016-48.608C 1010.304,862.496, 1000.352,853.056, 959.552,853.12z M 1154.016,521.536
		c-40.608,0.032-49.856,9.088-49.792,48.64c 0.032,37.472, 10.24,47.168, 49.664,47.168c 41.088,0.032, 49.984-8.48, 49.984-48
		C 1203.872,529.216, 1195.808,521.504, 1154.016,521.536z M 1202.88,714.496c-1.312-18.56-15.872-26.208-33.792-26.816
		c-5.056-0.224-10.112-0.064-15.232-0.064c-44.256-0.096-66.656,38.912-44.64,78.432c 3.2,5.728, 9.472,13.024, 14.912,13.504
		c 19.84,1.696, 41.184,5.216, 59.648-0.128C 1207.52,772.672, 1205.728,756.192, 1202.88,714.496z M 1104.256,901.344
		c-0.064,39.104, 9.792,48.512, 50.336,48.48c 41.152-0.064, 49.28-8.16, 49.28-48.8c-0.032-39.104-9.376-47.968-50.56-47.904
		C 1114.72,853.152, 1104.288,863.488, 1104.256,901.344z M 1215.648,1090.848c-0.608-32.352-18.912-50.752-51.328-50.944
		c-68.032-0.448-136.064-0.128-204.064-0.128c-66.080-0.064-132.192-0.224-198.272,0c-39.424,0.096-56.704,17.664-56.864,57.152
		c-0.064,30.464-0.16,60.992, 0.064,91.488c 0.256,35.264, 18.656,54.080, 54.304,54.272c 81.344,0.384, 162.688,0.128, 244.064,0.128
		c 50.848,0, 101.664,0.096, 152.544-0.064c 42.784-0.096, 59.648-17.216, 59.744-60.448C 1215.872,1151.872, 1216.192,1121.344, 1215.648,1090.848z"  />
<glyph unicode="&#xe036;" d="M 964.832,949.856c-40.288,0-50.336-9.76-50.208-48.704c 0.096-37.504, 10.816-47.936, 49.44-48
		c 40.768-0.064, 50.72,9.376, 50.752,48.128C 1014.848,940.928, 1005.664,949.856, 964.832,949.856zM 793.152,616.192c-32.96,6.848-59.936-0.224-68.704-17.984c-19.936-40.512, 1.76-76.672, 46.080-76.672
		c 42.496,0, 50.976,8.672, 50.592,51.552c0,1.888, 0.032,3.776-0.032,5.696C 820.192,600.704, 811.456,612.384, 793.152,616.192zM 966.624,783.872c-41.92,0.128-52.16-9.568-52-49.056c 0.128-37.792, 10.016-47.264, 49.504-47.296
		c 41.664,0, 50.656,8.448, 50.688,47.648C 1014.848,773.952, 1005.088,783.776, 966.624,783.872zM 792.576,948.896c-35.296,6.368-60.128-0.448-68.48-18.816c-19.136-42.112, 2.144-76.928, 47.136-76.928
		c 39.68,0, 49.952,10.016, 49.888,49.248c0,3.808, 0.128,7.648-0.128,11.392C 819.68,934.304, 810.464,945.664, 792.576,948.896zM 791.136,783.136c-34.048,6.016-58.24-0.8-66.784-18.848c-19.52-41.312, 1.792-76.704, 46.336-76.736
		c 41.568,0, 50.624,8.96, 50.4,50.048c-0.032,3.2, 0.064,6.368-0.128,9.536C 819.744,768.288, 810.24,779.744, 791.136,783.136zM 985.984,616.384c-33.344,6.336-58.88-0.448-67.296-17.92c-19.872-41.024, 1.6-76.928, 46.048-76.928
		c 41.92,0, 50.304,8.48, 50.048,50.432c0,3.2, 0.032,6.336-0.16,9.536C 1013.344,602.144, 1004.512,612.864, 985.984,616.384zM 1160.544,1242.816c-50.88,0.16-101.696,0.064-152.544,0.064c-81.344,0-162.688,0.256-244.032-0.128
		c-35.648-0.192-54.048-19.040-54.304-54.272c-0.224-30.496-0.128-61.024-0.064-91.488c 0.16-39.488, 17.44-57.056, 56.864-57.152
		c 66.080-0.224, 132.192-0.064, 198.272,0c 68,0, 136-0.32, 204.032,0.128c 32.448,0.192, 50.752,18.592, 51.328,50.944
		c 0.544,30.496, 0.224,60.992, 0.16,91.488C 1220.192,1225.6, 1203.328,1242.72, 1160.544,1242.816zM 1158.368,617.312c-39.392,0-49.632-9.696-49.664-47.168c-0.064-39.52, 9.184-48.608, 49.792-48.64
		c 41.792-0.032, 49.856,7.68, 49.856,47.776C 1208.352,608.832, 1199.456,617.344, 1158.368,617.312zM 1638.784,1542.816c-374.88,374.88-982.688,374.88-1357.568,0s-374.88-982.784,0-1357.664s 982.688-374.88, 1357.568,0
		S 2013.664,1167.968, 1638.784,1542.816z M 1269.792,394.912c-9.984-7.488-21.344-12.992-32.096-19.392c-180.704,0-361.44,0-542.144,0
		c-62.688,25.152-85.504,72.928-85.152,138.592c 1.28,233.504, 0.448,467.008, 0.672,700.544c 0.032,15.808, 0.512,32.064, 4.192,47.328
		c 13.6,56.544, 59.84,90.272, 123.168,90.4c 148.896,0.288, 297.792,0.128, 446.656,0.064c 86.080-0.064, 133.344-47.328, 133.408-133.376
		c 0.032-138.048, 0.032-276.16, 0.032-414.24c0-102.432-0.256-204.864, 0.064-307.328C 1318.752,455.264, 1303.872,420.416, 1269.792,394.912zM 1188.288,779.424c-18.464,5.344-39.808,1.824-59.648,0.128c-5.44-0.48-11.712-7.776-14.912-13.504
		c-22.016-39.52, 0.384-78.528, 44.64-78.432c 5.088,0, 10.144-0.16, 15.232,0.064c 17.92,0.608, 32.48,8.256, 33.792,26.816
		C 1210.176,756.192, 1212,772.672, 1188.288,779.424zM 1157.792,853.152c 41.184-0.064, 50.528,8.8, 50.56,47.904c0,40.672-8.128,48.736-49.28,48.8
		c-40.576,0.032-50.4-9.376-50.336-48.48C 1108.736,863.52, 1119.2,853.184, 1157.792,853.152z"  />
<glyph unicode="&#xe037;" d="M 1655.744,747.68c0,271.328, 0.032,542.688-0.064,814.016c-0.096,169.024-93.024,262.016-262.144,262.080
	C 1100.928,1823.936, 808.32,1824.224, 515.712,1823.68c-124.48-0.224-215.296-66.624-242.048-177.632C 266.4,1616.096, 265.504,1584.096, 265.44,1553.056
	C 264.928,1094.112, 266.624,635.232, 264.128,176.352C 263.392,47.328, 308.224-46.592, 431.424-96c 355.136,0, 710.304,0, 1065.44,0
	c 21.152,12.608, 43.52,23.424, 63.072,38.112c 67.008,50.144, 96.224,118.592, 95.936,201.6C 1655.328,345.056, 1655.744,546.368, 1655.744,747.68z M 623.968,1717.504
	c0,26.496, 21.504,48, 48,48s 48-21.504, 48-48l0-234.848 c0-26.496-21.504-48-48-48s-48,21.504-48,48L 623.968,1717.504 z M 1008,12.768
	c0-26.496-21.504-48-48-48s-48,21.504-48,48l0,245.216 c0,26.496, 21.504,48, 48,48s 48-21.504, 48-48L 1008,12.768 z M 1296.032,12.768
	c0-26.496-21.504-48-48-48s-48,21.504-48,48l0,245.216 c0,26.496, 21.504,48, 48,48s 48-21.504, 48-48L 1296.032,12.768 z M 1543.872,819.040l-247.904,0 
	c0-3.712,0-7.456,0-11.2c0-97.216-0.224-194.432, 0.064-291.68c 0.128-40.064-13.984-73.088-46.304-97.312
	c-9.44-7.136-20.256-12.352-30.464-18.432c-166.432,0-332.864,0-499.296,0l0-381.376 c0-26.496-21.504-48-48-48s-48,21.504-48,48L 623.968,406.656 
	l-215.84,0 c-26.496,0-48,21.504-48,48s 21.504,48, 48,48l 215.84,0 L 623.968,559.040 c0,0.192, 0.064,0.384, 0.064,0.576
	c 0.96,212.384, 0.32,424.736, 0.576,637.152c 0.032,14.976, 0.48,30.4, 3.968,44.896c 12.928,53.6, 56.768,85.664, 116.896,85.76
	c 67.552,0.128, 135.136,0.192, 202.688,0.192c 73.728,0, 147.456-0.064, 221.184-0.096c 10.944,0, 21.088-0.928, 30.688-2.528L 1200.032,1708.672 
	c0,26.496, 21.504,48, 48,48s 48-21.504, 48-48l0-619.168 c0-26.496-21.504-48-48-48s-47.52,21.344-47.52,47.84l-0.576,111.52
	c0,17.376-3.616,24.96-4.608,26.048c-1.056,0.928-8.672,4.576-26.016,4.576l-55.904,0.032l-165.248,0.064c-67.488,0-135.008-0.064-202.496-0.192
	c-20.8-0.032-22.464-6.816-23.776-12.288c-1.248-5.184-1.28-17.824-1.28-22.56c-0.096-76.768-0.032-153.632,0-230.464
	c 0.064-142.432, 0.16-289.728-0.64-434.688c-0.128-20.896, 2.528-29.888, 7.872-35.008l 465.28,0 c 4.192,3.232, 6.944,6.4, 6.912,19.424
	c-0.192,67.808-0.16,135.552-0.096,203.328l 0.032,88.672l0,11.2 c0,0, 0.16,18.464, 0.16,44.96s 21.504,50.496, 48,50.496l 47.84,0.544l 247.904,0 
	c 26.496,0, 48-21.504, 48-48S 1570.368,819.040, 1543.872,819.040z"  />
<glyph unicode="&#xe038;" d="M 1107.2,594.432c-13.536,0-24.544-11.008-24.544-24.512l0-140.832 c0-13.568, 11.008-24.544, 24.544-24.544
		s 24.544,10.976, 24.544,24.544l0,140.832 C 1131.712,583.424, 1120.704,594.432, 1107.2,594.432zM 960,594.432c-13.536,0-24.544-11.008-24.544-24.512l0-140.832 c0-13.568, 11.008-24.544, 24.544-24.544
		c 13.568,0, 24.544,10.976, 24.544,24.544l0,140.832 C 984.576,583.424, 973.568,594.432, 960,594.432zM 812.864,1134.784c 13.536,0, 24.544,10.976, 24.544,24.512l0,140.832 c0,13.536-11.008,24.544-24.544,24.544
		s-24.544-11.008-24.544-24.544l0-140.832 C 788.32,1145.76, 799.328,1134.784, 812.864,1134.784zM 1638.816,1542.816c-374.88,374.88-982.72,374.88-1357.6,0s-374.88-982.784,0-1357.664s 982.72-374.88, 1357.6,0
		S 2013.696,1167.968, 1638.816,1542.816z M 1266.56,392.992c-9.984-7.52-21.408-13.056-32.224-19.488c-181.472,0-362.944,0-544.384,0
		c-62.976,25.248-85.888,73.216-85.504,139.168c 1.28,234.464, 0.416,468.96, 0.672,703.456c0,15.872, 0.48,32.192, 4.192,47.52
		c 13.696,56.704, 60.064,90.624, 123.648,90.752c 149.504,0.288, 299.040,0.128, 448.544,0.064c 86.4-0.064, 133.92-47.552, 133.984-133.952
		c 0.032-138.624, 0.032-277.28, 0.032-415.968c0-102.848-0.224-205.696, 0.064-308.608C 1315.712,453.6, 1300.768,418.592, 1266.56,392.992zM 1258.368,890.080l-126.656,0 l-49.056,0 L 1107.2,890.080 c-13.536,0-24.544-10.976-24.544-24.512s0-24.544,0-24.544l0-5.728 l-0.032-45.312
		c-0.032-34.592-0.032-69.216, 0.032-103.904c 0.032-6.624-1.376-8.256-3.488-9.92l-237.76,0 c-2.72,2.624-4.064,7.2-4,17.92
		c 0.384,74.016, 0.352,149.312, 0.32,222.080c-0.032,39.328-0.064,78.56,0,117.792c0,2.4,0,8.864, 0.672,11.52
		c 0.672,2.816, 1.504,6.272, 12.128,6.272c 34.528,0.064, 68.992,0.096, 103.456,0.096l 84.48-0.032l 28.576,0 c 8.832,0, 12.704-1.888, 13.28-2.336
		c 0.512-0.576, 2.336-4.448, 2.336-13.344l 0.032-65.504l0-23.328 c0-13.536, 11.008-24.544, 24.544-24.544s 24.544,11.008, 24.544,24.544L 1131.776,1295.616 
		c0,13.536-11.008,24.544-24.544,24.544s-24.544-11.008-24.544-24.544l0-196.064 c-4.864,0.8-10.048,1.312-15.648,1.312
		c-37.696,0-75.328,0.032-113.056,0.032c-34.496,0-68.992-0.032-103.552-0.096c-30.72-0.064-53.12-16.416-59.744-43.808
		c-1.792-7.36-1.984-15.328-1.984-22.944c-0.128-108.544, 0.192-217.056-0.32-325.568c0-0.096,0-0.192,0-0.288l0-28.8 l-110.304,0 
		c-13.536,0-24.512-10.976-24.512-24.544c0-13.536, 10.976-24.512, 24.512-24.512l 110.304,0 l0-198.048 c0-13.568, 11.008-24.544, 24.544-24.544
		s 24.544,10.976, 24.544,24.544l0,194.848 c 85.024,0, 170.080,0, 255.072,0c 5.248,3.136, 10.784,5.824, 15.584,9.44
		c 16.544,12.384, 23.712,29.248, 23.648,49.728c-0.128,49.696,0,99.36,0,149.024c0,1.92,0,3.84,0,5.728l 126.656,0 c 13.536,0, 24.544,11.008, 24.544,24.544
		S 1271.904,890.080, 1258.368,890.080z"  />
<glyph unicode="&#xe039;" d="M 960,1824C 429.856,1824,0,1394.144,0,864s 429.856-960, 960-960s 960,429.856, 960,960S 1490.144,1824, 960,1824z M 960,64
	C 518.816,64, 160,422.912, 160,864c0,188, 65.344,360.928, 174.304,497.664l 463.232-463.232l-207.872-207.904c-2.944-2.88-5.28-6.432-6.784-10.272
	l-105.984-262.432c-4.672-11.52-1.952-24.672, 6.816-33.376c 5.92-5.984, 13.792-9.088, 21.888-9.088c 3.84,0, 7.808,0.736, 11.584,2.24l 166.688,67.264
	l 95.744,38.656c 3.744,1.568, 7.328,3.84, 10.208,6.88l 207.872,207.872l 459.936-459.936C 1320.928,129.344, 1148,64, 960,64z M 954.048,741.92
	l-149.152-149.12l-117.536,108.096l 153.856,153.888L 954.048,741.92z M 976.96,990.496l 344.896,344.896l 112.832-112.8L 1089.792,877.664L 976.96,990.496z
	 M 756.064,543.936l-5.408-5.408l-102.56-41.408l-51.648,51.68l 41.376,102.464l 0.768,0.736L 756.064,543.936z M 1592.448,374.976L 1133.472,833.984
	l 366.816,366.752c 5.824,5.856, 9.024,13.696, 9.024,21.888c0,8.224-3.232,16-9.024,21.856l-156.576,156.544c-12.064,12.064-31.648,12.064-43.68,0
	L 933.28,1034.176L 471.008,1496.512C 606.304,1601.344, 775.936,1664, 960,1664c 441.088,0, 800-358.912, 800-800C 1760,679.936, 1697.344,510.304, 1592.448,374.976z"  />
<glyph unicode="&#xe03a;" d="M 1440.672,862.656c-264.672,0-479.328-214.656-479.328-479.328S 1176-96, 1440.672-96S 1920,118.624, 1920,383.328
		S 1705.376,862.656, 1440.672,862.656z M 1440.672-16.128c-220.288,0-399.424,179.264-399.424,399.424c0,220.256, 179.168,399.424, 399.424,399.424
		c 220.224,0, 399.424-179.2, 399.424-399.424C 1840.128,163.136, 1660.896-16.128, 1440.672-16.128zM 1621.504,476.576l-173.376-51.552l-252.48,136.8c-23.296,12.576-52.352,3.936-64.928-19.328
		c-12.64-23.264-3.968-52.384, 19.264-64.992l 264.992-143.552c 11.552-7.936, 26.304-11.008, 40.8-6.688l 193.024,57.376
		c 25.344,7.552, 39.808,34.176, 32.256,59.616C 1673.568,469.632, 1646.88,484.064, 1621.504,476.576zM 960,1824C 429.824,1824,0,1394.176,0,864c0,0,0,0,0-0.064l0-0.032 c0-8.032, 0.992-15.776, 1.152-23.744
		c 11.712-475.328, 368.352-864.128, 829.472-926.496C 873.024-92, 916-96, 960-96c 31.776,0, 62.944,2.432, 93.888,5.76
		c-59.936,49.888-110.016,111.136-147.136,180.384c-45.728,3.136-90.464,9.632-133.728,20.384c-62.72,69.568-116.416,172.448-155.104,296.928l 218.976,0 
		c 1.472,27.872, 4.384,55.264, 9.472,81.984l-250.88,0 c-24.64,101.952-39.648,215.072-42.464,333.568l 365.984,0 l0-141.568 
		c 23.232,39.488, 50.688,76.128, 81.984,109.184l0,32.384 l 33.12,0 c 34.56,31.392, 72.416,59.136, 113.536,81.952L 1000.96,904.96 L 1000.96,1232.672 l 327.072,0 
		c 18.88-79.904, 31.616-166.56, 37.6-257.024c 24.672,3.040, 49.6,5.12, 75.072,5.12c 2.336,0, 4.64-0.32, 6.976-0.352
		c-5.504,88.736-17.12,173.472-34.336,252.256l 230.56,0 c 53.28-98.4, 84.96-209.76, 91.168-327.712l-1.28,0 c 69.12-38.336, 129.824-89.824, 179.008-151.072
		c 3.264,28.448, 5.28,57.184, 6.016,86.304C 1918.976,848.128, 1920,855.904, 1920,863.936l0,0.032 C 1920,864, 1920,864, 1920,864C 1920,1394.176, 1490.176,1824, 960,1824z
		 M 276.064,1232.672l 232.672,0 c-22.048-100.832-35.2-211.232-37.696-327.712L 184.896,904.96 C 191.072,1022.912, 222.816,1134.272, 276.064,1232.672z M 184.896,823.008l 286.144,0 
		c 2.496-118.816, 16.224-231.2, 39.072-333.568L 279.456,489.44 C 224.288,589.248, 191.264,702.624, 184.896,823.008z M 635.712,158.624
		c-121.216,56-225.344,142.048-303.328,248.8l 198.592,0 C 558.176,312.928, 593.664,228.864, 635.712,158.624z M 529.28,1314.56l-201.344,0 
		c 78.368,109.536, 184.256,197.76, 307.68,254.784C 592.704,1497.664, 556.64,1411.584, 529.28,1314.56z M 919.008,904.96L 553.024,904.96 
		c 2.784,116.192, 17.216,227.2, 40.96,327.712l 324.992,0 L 918.976,904.96 z M 919.008,1314.56l-302.848,0 c 38.784,127.232, 93.152,232.32, 156.864,302.944
		c 47.168,11.68, 95.904,18.944, 145.984,21.6L 919.008,1314.56 z M 1000.96,1314.56L 1000.96,1639.072 c 51.040-2.656, 100.672-10.208, 148.672-22.304
		c 63.456-70.56, 117.632-175.392, 156.256-302.208L 1000.96,1314.56 z M 1392.832,1314.56c-27.232,96.416-63.040,181.984-105.632,253.344
		c 122.24-57.056, 227.072-144.672, 304.768-253.344L 1392.832,1314.56 z"  />
<glyph unicode="&#xe03b;" d="M 1584.992,1710.56l-148.672,0 l0-134.016 c0-50.944-42.048-92.384-93.696-92.384s-93.696,41.44-93.696,92.384L 1248.928,1710.56 L 671.040,1710.56 l0-134.016 
		c0-50.944-42.016-92.384-93.664-92.384c-51.648,0-93.728,41.44-93.728,92.384L 483.648,1710.56 l-148.672,0 c-100.32,0-182.016-80.512-182.016-179.36l0-1447.296 
		c0-98.88, 81.696-179.36, 182.016-179.36l 1250.016,0 c 100.384,0, 182.016,80.512, 182.016,179.36L 1767.008,1531.2 C 1767.008,1630.048, 1685.376,1710.56, 1584.992,1710.56z
		 M 1648.576,83.904c0-34.528-28.512-62.624-63.552-62.624L 334.976,21.28 c-35.072,0-63.52,28.096-63.52,62.624L 271.456,1264.128 l 1377.12,0 L 1648.576,83.904 zM 577.376,1542.592c 19.040,0, 34.432,15.2, 34.432,33.984L 611.808,1710.56 L 611.808,1789.44 c0,18.816-15.392,34.016-34.432,34.016
		c-19.072,0-34.464-15.232-34.464-34.016l0-78.88 l0-134.016 C 542.912,1557.792, 558.336,1542.592, 577.376,1542.592zM 1342.624,1542.592c 19.072,0, 34.432,15.2, 34.432,33.984L 1377.056,1789.44 c0,18.816-15.36,34.016-34.432,34.016
		s-34.432-15.232-34.432-34.016l0-212.864 C 1308.192,1557.792, 1323.552,1542.592, 1342.624,1542.592zM 706.88,207.232l 505.6,0 c 12.928,0, 23.072,3.232, 30.304,9.696c 7.328,6.464, 10.944,16.352, 10.944,29.696l0,71.872 
		c0,14.144-3.808,24.384-11.552,30.624c-7.68,6.24-17.568,9.376-29.696,9.376l-278.72,0 c 8.352,21.664, 15.104,44.608, 20.32,68.736
		s 7.808,51.872, 7.808,83.136c0,2.496-0.096,6.336-0.32,11.552s-0.416,10.624-0.64,16.256s-0.64,11.328-1.248,17.184
		s-1.152,10.624-1.568,14.368l 98.112,0 c 13.376,0, 22.944,3.232, 28.736,9.696c 5.888,6.464, 8.736,15.52, 8.736,27.2l0,70.624 
		c0,11.264-2.688,20.224-8.128,26.88c-5.376,6.656-14.112,9.984-26.24,9.984l-128.096,0 c-3.744,15.008-6.976,27.904-9.696,38.752
		s-4.896,20.832-6.56,30.016s-2.816,17.92-3.424,26.24s-0.928,17.28-0.928,26.88c0,12.096, 1.344,23.968, 4.064,35.616
		s 7.808,21.984, 15.328,30.944s 18.016,16.256, 31.552,21.888s 31.168,8.448, 52.8,8.448c 10.88,0, 21.248-0.832, 31.264-2.496s 20.128-4.064, 30.304-7.2
		c 10.24-3.136, 20.736-7.104, 31.552-11.872c 10.88-4.768, 22.944-10.304, 36.256-16.576c 9.984-5.408, 18.112-6.464, 24.384-3.136
		s 11.68,9.376, 16.256,18.112l 40,76.864c 2.112,4.16, 3.68,7.904, 4.672,11.264c 1.056,3.328, 1.568,6.88, 1.568,10.624
		c0,3.328-1.248,6.336-3.744,9.056s-7.264,6.144-14.368,10.304c-29.568,15.84-62.048,28.352-97.504,37.504
		c-35.36,9.152-72.512,13.76-111.264,13.76c-40.832,0-77.376-4.992-109.664-15.008s-59.68-24.608-82.176-43.744s-39.776-42.816-51.872-70.944
		s-18.112-60.544-18.112-97.184c0-27.488, 2.912-53.216, 8.736-77.184s 11.456-44.288, 16.864-60.928l-59.36,0 c-12.096,0-20.832-3.328-26.24-9.984
		s-8.128-15.616-8.128-26.88l0-71.872 c0-23.744, 12.288-35.616, 36.864-35.616l 87.488,0 c 0.416-1.664, 0.832-4.48, 1.248-8.448s 0.928-8.448, 1.568-13.44
		s 1.152-10.080, 1.568-15.328s 0.64-9.92, 0.64-14.048c0-18.752-0.544-35.712-1.568-50.944s-2.72-29.152-4.992-41.888
		s-5.216-24.608-8.736-35.616s-7.808-21.568-12.8-31.552L 706.88,358.496 c-12.096,0-21.888-3.136-29.376-9.376s-11.264-16.48-11.264-30.624l0-71.872 
		c0-13.344, 3.52-23.232, 10.624-29.696S 693.984,207.232, 706.88,207.232z"  />
<glyph unicode="&#xe03c;" d="M 1012.224,687.328L 1702.88,687.328L 1702.88,655.328L 1012.224,655.328zM 1012.224,575.328L 1702.88,575.328L 1702.88,543.328L 1012.224,543.328zM 1012.224,799.328L 1702.88,799.328L 1702.88,767.328L 1012.224,767.328zM 1012.224,911.328L 1702.88,911.328L 1702.88,879.328L 1012.224,879.328zM 1012.224,1184.672L 1702.88,1184.672L 1702.88,1056.672L 1012.224,1056.672zM 1726.848,1370.656c 52.928,0, 96-43.072, 96-96l0-821.344 c0-52.928-43.072-96-96-96L 193.152,357.312 c-52.928,0-96,43.072-96,96L 97.152,1274.656 
			c0,52.928, 43.072,96, 96,96L 1726.848,1370.656  M 1726.848,1466.656L 193.152,1466.656 c-106.016,0-192-85.984-192-192l0-821.344 c0-105.984, 85.984-192, 192-192l 1533.696,0 c 106.016,0, 192,86.016, 192,192
			L 1918.848,1274.656 C 1918.848,1380.704, 1832.864,1466.656, 1726.848,1466.656L 1726.848,1466.656zM 889.504,583.36c-1.664,27.072-3.552,54.048-4.128,81.184
		c-0.48,17.76-8.864,29.12-24.064,36c-31.68,14.24-63.488,28.384-95.424,41.984c-24.032,10.304-48.672,19.136-72.544,29.76
		c-16.096,7.136-30.336,17.248-35.040,35.744c-1.632,6.56-5.408,8.064-11.2,7.744c-7.104-0.32-8.096,0.736-6.528,7.68
		c 0.576,2.368, 1.536,5.184, 3.264,6.816c 11.136,10.496, 15.424,24.192, 18.336,38.592c 1.792,8.736, 2.72,17.696, 4.192,27.008
		c 8.416-2.368, 11.712,2.752, 14.432,8.48c 11.616,24.224, 16.032,50.080, 17.44,76.64c 0.352,7.712-1.92,9.152-12.192,8.512
		c 1.344,5.472, 2.56,10.080, 3.584,14.784c 6.784,31.104, 5.024,62.24, 0.864,93.44c-0.544,4.32-1.472,8.896-3.648,12.608
		c-8.672,14.656-17.824,29.056-27.136,43.328c-1.952,3.008-5.152,5.344-8.224,7.328c-19.52,12.384-41.088,19.712-63.264,25.888
		c-24.416,6.72-48.608,7.872-71.968-2.304c-13.408-5.856-28.96-10.624-32.128-28.608c-0.032-0.32-0.672-0.544-1.088-0.736
		c-11.136,3.84-15.36,4.16-22.336-1.664c-1.696-1.344-3.424-2.976-5.44-5.024c-13.824-13.792-20.864-31.040-22.912-49.984
		c-2.688-23.968, 2.368-47.456, 6.176-70.976c 1.952-11.904, 4.48-23.744, 6.848-36.416c-8.16,0.256-8.032-4.768-8.096-9.984
		c-0.288-25.856, 5.76-50.4, 13.504-74.816c 1.984-6.368, 5.696-8.896, 11.68-10.272c 2.304-0.576, 5.408-2.912, 5.952-5.056
		c 2.336-8.96, 4.512-18.176, 5.6-27.392c 1.632-13.12, 4.832-24.544, 18.304-30.784c 2.816-1.248, 5.248-6.816, 5.088-10.304
		c-0.192-5.312-5.44-3.616-8.992-3.552c-9.216,0.064-11.264-1.504-14.816-10.368c-2.72-6.944-5.504-13.952-8.992-20.448
		c-1.216-2.112-2.304-4.32-3.552-6.368c-2.976-4.576-6.592-7.072-19.936-12.192c-1.056,0.064-2.176-0.8-3.264-1.248
		c-22.496-8.928-44.992-17.984-67.488-27.008c-15.264-6.112-31.232-12.32-45.696-18.112c-9.376-3.68-18.688-7.328-28-10.944
		c-20.928-8.064-38.912-19.2-50.24-39.136c-1.728-3.136-3.136-6.944-3.296-10.496c-1.312-26.112-2.336-52.256-3.328-78.432
		c-0.288-6.688-0.128-8.64, 3.36-9.184c 3.264-2.944, 8.832-4.8, 17.92-6.752c 120.704-25.632, 327.104-53.44, 565.248-8.192
		C 853.568,565.248, 889.952,576.736, 889.504,583.36z"  />
<glyph unicode="&#xe03d;" d="M 960,1606.176c-530.496,0-960.576-303.264-960.576-677.344
	c0-246.208, 186.336-461.728, 464.992-580.32c-5.184-30.592-24.032-71.776-71.040-125.664c-85.152-97.632-21.376-112, 36-94.848
	c 97.216,29.056, 182.592,48.832, 284.672,145.984c 78.528-14.624, 160.896-22.496, 245.952-22.496c 530.496,0, 960.544,303.264, 960.544,677.344
	S 1490.496,1606.176, 960,1606.176z"  />
<glyph unicode="&#xe03e;" d="M 1638.816,1542.816c-374.88,374.88-982.752,374.88-1357.632,0
		s-374.88-982.752,0-1357.632s 982.752-374.88, 1357.632,0S 2013.696,1167.936, 1638.816,1542.816z M 1525.696,298.304c-311.872-311.904-819.424-311.904-1131.328,0
		c-311.968,311.968-311.904,819.456,0,1131.328c 311.904,311.904, 819.392,312, 1131.328,0C 1837.632,1117.792, 1837.632,610.208, 1525.696,298.304zM 960,1261.568c-284.192,0-514.56-162.432-514.56-362.816
		c0-131.904, 99.808-247.328, 249.088-310.88c-2.784-16.384-12.864-38.432-38.048-67.328c-45.6-52.32-11.424-60, 19.328-50.816
		c 52.064,15.584, 97.792,26.176, 152.48,78.208c 42.048-7.84, 86.208-12.064, 131.744-12.064c 284.16,0, 514.528,162.432, 514.528,362.848
		C 1474.528,1099.136, 1244.16,1261.568, 960,1261.568z"  />
<glyph unicode="&#xe03f;" d="M 1638.816,1542.816c-374.88,374.88-982.752,374.88-1357.632,0
	s-374.88-982.752,0-1357.632s 982.752-374.88, 1357.632,0S 2013.696,1167.936, 1638.816,1542.816z M 960.032,535.936c-45.536,0-89.696,4.224-131.744,12.064
	c-54.688-52.032-100.416-62.624-152.48-78.208c-30.752-9.184-64.896-1.504-19.328,50.816c 25.184,28.864, 35.296,50.944, 38.048,67.328
	c-149.28,63.52-249.088,178.976-249.088,310.88c0,200.384, 230.368,362.816, 514.56,362.816c 284.16,0, 514.528-162.432, 514.528-362.816
	C 1474.56,698.368, 1244.192,535.936, 960.032,535.936z"  />
<glyph unicode="&#xe040;" d="M 507.424,359.328A452.544,452.544 180 1 1 1412.512,359.328A452.544,452.544 180 1 1 507.424,359.328zM 740.864,889.984l-227.552,931.2l-112,0 l 240.512-984.032C 672.832,857.888, 705.984,875.552, 740.864,889.984zM 1318.688,1821.184l-112,0 l-217.312-889.184c 37.088-1.888, 73.216-7.2, 108.128-15.776L 1318.688,1821.184zM 930.624,932.032L 713.312,1821.184l-112,0 l 221.152-904.96C 857.408,924.832, 893.504,930.112, 930.624,932.032zM 1278.176,837.152l 240.512,984.032l-112,0 l-227.584-931.2C 1214.016,875.552, 1247.168,857.888, 1278.176,837.152z"  />
<glyph unicode="&#xe041;" d="M 815.168-18.4c-15.36-10.464-33.952-16.608-54.016-16.608c-53.184,0-96.32,43.072-96.32,96.256
				c0,33.728, 17.44,63.296, 43.744,80.48c-10.368,23.328-19.264,47.392-26.496,72.224L 359.328,213.952 L 359.328,1515.296 l 803.552,0 l0-567.104 
				c 24,3.040, 48.256,5.12, 72.992,5.12c 11.808,0, 23.328-1.056, 34.88-1.76L 1270.752,1666.752 C 1270.784,1753.6, 1200.416,1824, 1113.6,1824L 408.672,1824 
				c-86.88,0-157.248-70.4-157.248-157.248l0-1605.504 c0-86.88, 70.368-157.248, 157.248-157.248l 495.488,0 C 871.84-73.216, 842.144-47.168, 815.168-18.4z
				 M 687.776,1691.648l 146.688,0 c 11.872,0, 21.568-9.728, 21.568-21.696c0-12-9.696-21.728-21.568-21.728l-146.688,0 c-11.872,0-21.568,9.728-21.568,21.728
				C 666.208,1681.952, 675.904,1691.648, 687.776,1691.648zM 1237.28,862.624c-264.672,0-479.328-214.624-479.328-479.328S 972.608-96, 1237.28-96s 479.328,214.624, 479.328,479.328
			S 1501.984,862.624, 1237.28,862.624z M 1237.28-16.128c-220.256,0-399.424,179.2-399.424,399.424c0,220.192, 179.2,399.424, 399.424,399.424
			s 399.424-179.264, 399.424-399.424C 1636.704,163.072, 1457.536-16.128, 1237.28-16.128zM 1396.096,143.936c-4.064-3.616-9.76-5.44-17.056-5.44l-283.872,0 c-7.264,0-12.864,1.824-16.8,5.44
			c-4,3.616-6.016,9.184-6.016,16.672l0,40.384 c0,7.936, 2.112,13.696, 6.304,17.184c 4.256,3.488, 9.76,5.248, 16.512,5.248l 38.24,0 
			c 2.816,5.632, 5.248,11.552, 7.2,17.76c 1.984,6.176, 3.616,12.8, 4.928,19.936c 1.312,7.2, 2.24,15.008, 2.816,23.552
			s 0.864,18.048, 0.864,28.576c0,2.368-0.128,4.992-0.384,7.936c-0.192,2.944-0.512,5.76-0.864,8.576s-0.64,5.312-0.864,7.552
			s-0.512,3.808-0.672,4.736L 1097.28,342.048 c-13.824,0-20.672,6.688-20.672,20l0,40.384 c0,6.304, 1.504,11.328, 4.576,15.072
			c 3.008,3.744, 7.936,5.632, 14.688,5.632l 33.376,0 c-3.072,9.312-6.176,20.736-9.504,34.176c-3.264,13.504-4.864,27.936-4.864,43.36
			c0,20.576, 3.36,38.752, 10.176,54.56c 6.752,15.808, 16.448,29.056, 29.12,39.808c 12.576,10.752, 28,19.008, 46.112,24.576
			c 18.112,5.632, 38.624,8.448, 61.568,8.448c 21.76,0, 42.56-2.56, 62.496-7.68c 19.872-5.184, 38.112-12.192, 54.688-21.056
			c 4-2.368, 6.688-4.32, 8.128-5.824c 1.376-1.504, 2.112-3.264, 2.112-5.056c0-2.112-0.32-4.128-0.928-6.016
			c-0.576-1.888-1.44-3.936-2.624-6.304l-22.432-43.2c-2.56-4.864-5.632-8.256-9.12-10.176c-3.488-1.888-8.064-1.248-13.696,1.824
			c-7.488,3.488-14.24,6.56-20.32,9.248c-6.112,2.688-12.064,4.928-17.76,6.688c-5.76,1.76-11.424,3.136-17.056,4.064
			c-5.568,0.928-11.424,1.376-17.504,1.376c-12.192,0-22.048-1.568-29.696-4.736c-7.552-3.136-13.504-7.264-17.696-12.256
			c-4.256-5.056-7.136-10.88-8.64-17.376c-1.504-6.56-2.24-13.248-2.24-20c0-5.376, 0.128-10.432, 0.512-15.136
			s 0.992-9.568, 1.952-14.752c 0.928-5.12, 2.112-10.752, 3.68-16.8s 3.328-13.312, 5.44-21.76l 71.936,0 c 6.816,0, 11.68-1.888, 14.752-5.632
			c 3.008-3.744, 4.576-8.736, 4.576-15.072l0-39.68 c0-6.56-1.632-11.616-4.928-15.264c-3.264-3.616-8.64-5.44-16.128-5.44l-55.136,0 
			c 0.256-2.112, 0.576-4.8, 0.928-8.064c 0.32-3.328, 0.576-6.496, 0.672-9.696c 0.064-3.136, 0.192-6.176, 0.32-9.12
			s 0.192-5.056, 0.192-6.432c0-17.568-1.44-33.12-4.384-46.688s-6.752-26.496-11.424-38.624l 156.512,0 c 6.816,0, 12.384-1.76, 16.672-5.248
			c 4.384-3.488, 6.496-9.248, 6.496-17.184l0-40.384 C 1402.208,153.12, 1400.16,147.552, 1396.096,143.936z"  />
<glyph unicode="&#xe042;" d="M 1740.992,1216.544l-235.616,0.16l-47.968,226.912c-20.352,96.256-114.88,157.824-211.2,137.44L 142.368,1347.616
	c-96.256-20.384-157.824-114.88-137.472-211.2l 148.48-701.952c 20.352-96.288, 114.944-157.824, 211.2-137.472l 70.24,14.88
	c 5.28-93.6, 82.624-167.968, 177.472-168.064l 1128-0.736c 98.368-0.096, 178.144,79.584, 178.24,177.984l 0.512,717.248
	C 1919.072,1136.672, 1839.424,1216.448, 1740.992,1216.544z M 92,1154.88c-10.112,48.032, 20.672,95.392, 68.736,105.536l 1103.904,233.472
	c 48.064,10.208, 95.392-20.672, 105.568-68.704l 15.328-72.64L 107.392,1082.304L 92,1154.88z M 346.112,384.192c-48.128-10.208-95.392,20.672-105.6,68.672
	L 145.92,900.032l 1278.24,270.272L 1518.752,723.2c 10.080-48.032-20.704-95.392-68.768-105.568L 346.112,384.192z M 1829.472,321.056
	c-0.064-49.088-40.032-89.024-89.12-88.96l-1128,0.768c-49.12,0-88.992,40-88.992,89.12l0,8.608 l 945.056,199.872
	c 96.288,20.416, 157.792,114.88, 137.44,211.2l-7.712,36.48l 231.648-0.16L 1829.472,321.056z M 1829.888,964.192l-271.136,0.192l-34.528,163.264l 216.736-0.16
	c 49.12,0, 88.992-40, 88.96-89.056L 1829.888,964.192z"  />
<glyph unicode="&#xe043;" d="M 1445.024,1009.952l-188.8,3.904l-60.416,249.568
		c-11.936,49.12-63.040,80.608-112.512,68.64l-669.056-161.984c-24.192-5.856-44.672-20.736-57.632-41.984s-16.864-46.272-11.040-70.464l 97.472-402.848
		c 10.208-41.92, 47.424-71.2, 90.528-71.2c 7.36,0, 14.784,0.896, 22.016,2.656l 168.736,40.832l-1.376-66.112
		c-0.928-48.224, 37.568-88.32, 85.824-89.344l 624.928-12.896l 1.824,0 c 47.232,0, 86.496,38.4, 87.552,85.728l 7.68,376.128
		C 1531.808,968.768, 1493.344,1008.896, 1445.024,1009.952z M 430.048,980.608l-22.272,92.064c-1.824,7.552-0.608,15.36, 3.456,22.016
		c 4.064,6.688, 10.464,11.328, 18.048,13.184l 669.056,161.984c 2.272,0.544, 4.608,0.8, 6.912,0.8c 13.504,0, 25.152-9.184, 28.352-22.304
		l 20.992-86.752L 430.048,980.608z M 540.544,648.416c-15.744-3.936-31.488,6.080-35.296,21.472l-52.64,217.408l 724.608,181.024l 53.92-222.72
		c 3.776-15.616-5.888-31.424-21.536-35.264L 540.544,648.416z M 1459.104,545.792c-0.288-12.736-10.848-23.104-23.552-23.104l0-32 l-0.512,32
		l-624.896,12.896c-13.024,0.288-23.392,11.104-23.168,24.064l 1.728,82.976l 435.968,105.536c 6.176,1.504, 12.064,3.584, 17.632,6.176l 220.96-4.672
		L 1459.104,545.792z M 1465.216,845.696l-170.336,3.584c-0.448,3.808-0.672,7.552-1.568,11.36l-21.504,88.832l 171.872-3.552
		c 13.024-0.288, 23.36-11.072, 23.104-24.064L 1465.216,845.696zM 1638.816,1542.816c-374.88,374.88-982.752,374.88-1357.632,0
		s-374.88-982.752,0-1357.632s 982.752-374.88, 1357.632,0S 2013.696,1167.936, 1638.816,1542.816z M 1525.696,298.304c-311.872-311.904-819.424-311.904-1131.328,0
		c-311.968,311.968-311.904,819.456,0,1131.328c 311.904,311.904, 819.392,312, 1131.328,0C 1837.632,1117.792, 1837.632,610.208, 1525.696,298.304z"  />
<glyph unicode="&#xe044;" d="M 1247.776,748.48l-435.968-105.536l-1.728-82.976
		c-0.256-12.96, 10.112-23.776, 23.168-24.064l 624.896-12.896l 0.512-32l0,32 c 12.704,0, 23.296,10.336, 23.552,23.104l 4.16,203.904l-220.96,4.672
		C 1259.84,752.064, 1253.984,749.984, 1247.776,748.48zM 1254.24,845.92l-53.92,222.72l-724.608-181.024l 52.64-217.408
		c 3.776-15.36, 19.52-25.408, 35.296-21.472l 669.056,161.952C 1248.384,814.464, 1258.016,830.272, 1254.24,845.92zM 1156.736,1248.672c-3.2,13.12-14.848,22.304-28.352,22.304
		c-2.304,0-4.64-0.288-6.912-0.8l-669.056-161.984c-7.584-1.856-14.016-6.496-18.048-13.184c-4.064-6.656-5.28-14.464-3.456-22.016
		l 22.272-92.064l 724.576,180.992L 1156.736,1248.672zM 1466.816,946.24l-171.872,3.552l 21.504-88.832
		c 0.896-3.808, 1.12-7.552, 1.568-11.36l 170.336-3.584l 1.568,76.192C 1490.176,935.2, 1479.84,945.984, 1466.816,946.24zM 1638.816,1542.816c-374.88,374.88-982.752,374.88-1357.632,0
		s-374.88-982.752,0-1357.632s 982.752-374.88, 1357.632,0S 2013.696,1167.936, 1638.816,1542.816z M 1546.208,544.704
		c-1.056-47.328-40.352-85.728-87.552-85.728l-1.824,0 l-624.928,12.896c-48.256,1.024-86.752,41.12-85.824,89.344l 1.376,66.112l-168.736-40.832
		c-7.232-1.76-14.624-2.656-22.016-2.656c-43.104,0-80.32,29.28-90.528,71.2L 368.704,1057.92c-5.856,24.192-1.952,49.216, 11.040,70.464
		s 33.44,36.16, 57.632,41.984l 669.056,161.984c 49.472,11.968, 100.576-19.488, 112.512-68.64l 60.416-249.568l 188.8-3.904
		c 48.32-1.024, 86.784-41.152, 85.76-89.408L 1546.208,544.704z"  />
</font>
</defs>
</svg>
